<svg width="461" height="36" viewBox="0 0 461 36" fill="none" xmlns="http://www.w3.org/2000/svg">
<path d="M432.939 19.0962C432.308 19.1256 431.671 19.1459 431.052 19.19C430.651 19.2176 430.479 19.1367 430.211 19.0943C430.122 19.0796 430.026 19.0502 429.943 19.0538C429.318 19.0833 428.694 19.1164 428.069 19.1495C427.878 19.2213 427.757 19.317 427.463 19.352C427.176 19.3851 426.839 19.3851 426.52 19.4017C426.099 19.4219 425.678 19.4422 425.258 19.4606C425.047 19.4698 424.875 19.5048 424.805 19.571C424.792 19.5821 424.932 19.6097 425.009 19.6262C425.264 19.6814 425.513 19.744 425.793 19.7863C426.061 19.8268 426.392 19.7606 426.679 19.8121C427.323 19.9281 427.33 19.9262 427.82 19.9041C428.241 19.8839 428.662 19.8618 429.083 19.8471C429.166 19.8434 429.261 19.871 429.35 19.8857C429.618 19.9262 429.79 20.0182 430.186 19.9833C430.485 19.9557 430.817 19.9501 431.129 19.9354C431.39 19.9888 431.633 20.0495 431.913 20.0919C432.174 20.1323 432.251 20.1636 432.111 20.217C431.983 20.2667 431.805 20.287 431.569 20.2906C431.358 20.2925 431.148 20.309 430.938 20.3182C430.829 20.3238 430.727 20.3274 430.625 20.333C430.224 20.3532 430.224 20.3532 429.491 20.2354C429.204 20.1894 428.879 20.2538 428.605 20.2097C428.42 20.1802 428.26 20.136 428.082 20.1048C428.005 20.0919 427.884 20.09 427.788 20.0937C427.47 20.1066 427.151 20.1158 426.845 20.1397C426.628 20.1563 426.501 20.2078 426.526 20.2593C426.533 20.2796 426.686 20.309 426.775 20.3109C426.979 20.3146 427.196 20.2888 427.393 20.3017C427.584 20.3146 427.782 20.3514 427.922 20.3919C428.209 20.4765 428.534 20.4011 428.808 20.4232C429.095 20.4471 429.331 20.5207 429.605 20.5649C429.675 20.5759 429.809 20.5575 429.918 20.552C430.23 20.5391 430.543 20.5281 430.855 20.5152C431.116 20.5686 431.397 20.6164 431.633 20.6771C432.06 20.7876 432.519 20.8299 433.073 20.7765C433.386 20.7471 433.692 20.7581 433.94 20.8299C434.195 20.9035 434.489 20.8962 434.814 20.8814C435.113 20.8667 435.419 20.8262 435.725 20.8777C436.388 20.9919 436.395 20.9974 437.179 20.9532C437.415 20.9403 437.593 20.9366 437.772 20.979C437.937 21.0176 438.116 21.0507 438.288 21.0876C438.6 21.0747 438.919 21.0618 439.232 21.0471C439.633 21.0268 439.856 21.0526 439.952 21.1557C440.009 21.2182 440.035 21.2753 440.175 21.3176C440.341 21.3692 440.519 21.3673 440.762 21.3526C440.991 21.3397 441.157 21.3195 441.252 21.2532C441.291 21.2256 441.367 21.1998 441.437 21.1777C441.495 21.1612 441.584 21.1354 441.635 21.1391C441.731 21.1465 441.858 21.1667 441.89 21.1906C442.202 21.4133 442.202 21.4152 442.521 21.4796C442.872 21.5514 443.235 21.6158 443.554 21.6967C443.841 21.7685 444.128 21.7372 444.44 21.7372C444.676 21.7372 444.829 21.7851 444.81 21.833C444.797 21.8606 444.708 21.901 444.631 21.9047C444.006 21.9415 443.375 21.9728 442.744 21.9986C442.668 22.0023 442.572 21.9691 442.483 21.9526C442.304 21.9194 442.145 21.8679 441.954 21.8569C441.762 21.8458 441.539 21.8734 441.329 21.8826C441.119 21.8918 440.896 21.9158 440.704 21.9011C440.513 21.8863 440.36 21.8329 440.181 21.798C440.099 21.7814 439.984 21.7575 439.914 21.763C439.448 21.8072 439.104 21.7464 438.773 21.6655C438.702 21.6489 438.581 21.6379 438.492 21.6415C437.753 21.6728 437.02 21.7096 436.28 21.7446C435.98 21.7593 435.738 21.6949 435.674 21.5863C435.642 21.5256 435.579 21.4648 435.579 21.4041C435.579 21.2937 435.228 21.233 434.973 21.2458C434.552 21.2642 434.125 21.279 433.711 21.3066C433.373 21.3286 433.086 21.3066 432.857 21.2403C432.589 21.1649 432.283 21.1796 431.977 21.1998C431.747 21.2145 431.684 21.2753 431.696 21.428C431.709 21.5514 431.601 21.59 431.186 21.6102C430.664 21.636 430.134 21.6618 429.605 21.682C429.522 21.6857 429.427 21.6544 429.344 21.6379C429.165 21.6047 429.006 21.5513 428.815 21.5403C428.624 21.5274 428.4 21.555 428.19 21.5661C427.98 21.5753 427.757 21.601 427.565 21.5882C427.374 21.5753 427.215 21.5201 427.043 21.4851C426.96 21.4685 426.858 21.4446 426.775 21.4483C426.354 21.463 425.933 21.4851 425.513 21.5053C425.041 21.5274 425.041 21.5274 424.371 21.4133C424.065 21.3618 423.759 21.4023 423.46 21.417C423.141 21.4317 422.841 21.4391 422.593 21.3655C422.427 21.3176 422.242 21.2882 422.045 21.2974C421.515 21.3195 420.993 21.3471 420.464 21.3692C420.374 21.3728 420.253 21.3636 420.183 21.3471C419.845 21.2698 419.514 21.209 419.042 21.2477C418.634 21.2808 418.194 21.2826 417.786 21.3139C417.563 21.3305 417.461 21.3894 417.506 21.4354C417.531 21.4593 417.665 21.4869 417.754 21.4869C417.958 21.4888 418.181 21.4612 418.373 21.4722C418.768 21.4943 418.965 21.6489 419.482 21.6066C419.788 21.5808 420.107 21.5716 420.425 21.5642C420.508 21.5624 420.597 21.5974 420.687 21.6158C420.942 21.6655 421.165 21.7299 421.535 21.6967C421.841 21.671 422.166 21.6636 422.478 21.6489C422.975 21.625 422.975 21.6268 423.619 21.7391C423.925 21.7925 424.231 21.7501 424.531 21.7372C424.754 21.728 424.964 21.7096 425.143 21.7354C425.417 21.7741 425.615 21.8624 425.952 21.8569C426.271 21.8513 426.584 21.8256 426.902 21.8164C427.1 21.8109 427.285 21.8403 427.444 21.89C427.61 21.9397 427.788 21.9618 428.005 21.9507C428.318 21.936 428.636 21.9176 428.955 21.9084C429.044 21.9066 429.146 21.9231 429.229 21.9379C429.408 21.971 429.58 22.0096 429.752 22.0446C430.064 22.0336 430.383 22.0299 430.689 22.0078C430.925 21.9912 431.091 21.9986 431.282 22.0354C431.524 22.0851 431.722 22.1734 432.117 22.1311C432.315 22.1109 432.544 22.1164 432.742 22.098C432.984 22.074 433.15 22.0832 433.322 22.1385C433.647 22.2434 434.055 22.2452 434.476 22.2047C434.935 22.1605 435.279 22.2121 435.623 22.2931C435.987 22.3777 435.987 22.3759 436.267 22.5802C436.35 22.6391 436.586 22.6667 436.784 22.6556C437.115 22.6372 437.402 22.6464 437.644 22.7164C437.899 22.7918 438.205 22.7826 438.518 22.7624C438.932 22.7348 439.346 22.7109 439.684 22.8176C439.85 22.8691 440.029 22.882 440.252 22.8691C440.883 22.836 441.52 22.8158 442.139 22.7753C442.515 22.7495 442.731 22.8084 442.986 22.8581C443.331 22.9262 443.707 22.9869 443.707 23.1323C443.707 23.1562 443.796 23.1839 443.873 23.2023C444.038 23.2409 444.217 23.274 444.389 23.3108C444.644 23.3661 444.893 23.4121 445.243 23.3826C445.549 23.3587 445.874 23.3513 446.187 23.3348C446.499 23.3182 446.786 23.309 447.066 23.3789C447.392 23.4581 447.736 23.5335 448.106 23.5924C448.367 23.6348 448.711 23.563 448.992 23.62C449.164 23.655 449.33 23.6955 449.514 23.7249C449.591 23.7378 449.712 23.7286 449.814 23.7249C450.025 23.7176 450.241 23.7121 450.445 23.6937C450.681 23.6734 450.86 23.6771 451.038 23.7194C451.204 23.7581 451.37 23.8114 451.561 23.8225C451.848 23.8391 452.166 23.7654 452.453 23.8501C452.6 23.8924 452.785 23.9329 452.976 23.9458C453.167 23.9587 453.391 23.9311 453.595 23.9329C453.684 23.9329 453.792 23.9624 453.843 23.9863C453.875 23.9992 453.83 24.0341 453.786 24.0526C453.728 24.0746 453.645 24.1041 453.563 24.1078C452.931 24.1409 452.3 24.1685 451.669 24.1998C451.293 24.2182 451.293 24.2182 450.534 24.1022C450.356 24.0746 450.158 24.0802 449.935 24.093C449.636 24.1096 449.33 24.1409 449.017 24.1078C448.609 23.9826 448.106 23.9716 447.57 24.0194C447.347 24.0397 447.143 24.0397 446.977 24.0047C446.627 23.9348 446.257 23.8704 445.945 23.7875C445.702 23.7231 445.588 23.7176 445.486 23.8059C445.454 23.8335 445.422 23.863 445.428 23.8887C445.466 23.9808 445.536 24.071 445.575 24.163C445.587 24.1887 445.537 24.2182 445.505 24.2458C445.403 24.3231 445.269 24.3176 445.046 24.2532C444.823 24.1887 444.555 24.1464 444.198 24.1759C443.892 24.2016 443.56 24.198 443.254 24.2256C442.783 24.2661 442.451 24.2072 442.113 24.128C442.043 24.1115 441.922 24.1023 441.833 24.1059C440.883 24.1483 439.939 24.1961 438.989 24.2384C438.785 24.2476 438.6 24.22 438.441 24.1703C438.275 24.1207 438.09 24.0949 437.886 24.1041C437.045 24.1427 436.203 24.1777 435.362 24.2256C435.018 24.2458 434.744 24.2219 434.508 24.1574C434.329 24.1096 434.163 24.0949 433.94 24.1004C433.698 24.1059 433.526 24.1243 433.405 24.1777C433.29 24.2292 433.373 24.2605 433.628 24.301C433.902 24.3452 434.157 24.4022 434.418 24.4538C434.629 24.4464 434.839 24.4317 435.043 24.4335C435.132 24.4335 435.215 24.4667 435.305 24.4851C435.56 24.5384 435.795 24.5918 436.159 24.5624C436.465 24.5366 436.79 24.5311 437.102 24.5145C437.536 24.4943 437.536 24.4943 438.237 24.6102C438.416 24.6397 438.607 24.6378 438.836 24.6212C439.034 24.6084 439.238 24.6341 439.378 24.6893C439.436 24.7114 439.417 24.7483 439.295 24.8697C439.295 24.9599 439.429 24.9194 439.474 24.8605C439.544 24.7759 439.41 24.7483 439.155 24.7943C438.977 24.8274 438.887 24.8752 438.932 24.9139C438.957 24.9341 439.079 24.9599 439.295 24.8697C439.856 24.7593 440.284 24.7464 440.691 24.717C440.934 24.7004 441.087 24.7077 441.278 24.7556C441.507 24.8127 441.737 24.8734 442.113 24.844C442.521 24.8108 442.955 24.8071 443.369 24.7795C443.751 24.7538 443.949 24.8348 444.191 24.8826C444.485 24.9397 444.81 24.8752 445.077 24.9084C445.358 24.9415 445.556 25.0225 445.881 25.0372C446.352 24.9875 446.652 25.0795 447.009 25.1403C447.29 25.1863 447.621 25.1458 447.921 25.1255C448.259 25.1034 448.539 25.1237 448.775 25.19C449.043 25.2654 449.342 25.2489 449.648 25.2323C450.362 25.1955 450.388 25.19 450.802 25.2912C451.102 25.3648 451.389 25.3317 451.688 25.3225C451.95 25.3722 452.205 25.4255 452.479 25.4697C452.549 25.4807 452.683 25.4624 452.791 25.4568C453.104 25.4421 453.422 25.4274 453.735 25.4127C453.945 25.4035 454.168 25.3758 454.359 25.3869C454.551 25.3998 454.71 25.4532 454.882 25.4881C455.054 25.5231 455.233 25.5581 455.399 25.5949C455.654 25.6501 455.896 25.6961 456.253 25.6685C456.559 25.6446 456.878 25.6372 457.196 25.6206C457.598 25.6004 457.585 25.6059 458.331 25.7163C458.733 25.7771 459.147 25.7035 459.555 25.6961C459.759 25.6924 459.957 25.7127 460.097 25.766C460.154 25.7881 460.135 25.8249 460.154 25.8562C459.103 25.9059 458.044 25.9482 457.005 26.009C456.603 26.0329 456.393 25.9666 456.176 25.9114C455.819 25.8231 455.348 25.9519 455.01 25.8378C454.806 25.7697 454.512 25.7311 454.162 25.7642C453.958 25.7826 453.741 25.7807 453.531 25.7973C452.995 25.8378 452.504 25.8396 452.077 25.7127C451.931 25.6685 451.72 25.6446 451.567 25.6022C451.389 25.5562 451.217 25.5304 451.006 25.5396C450.056 25.5838 449.113 25.628 448.169 25.6758C448.086 25.6795 448.004 25.7071 447.933 25.7274C447.755 25.7789 447.812 25.8194 448.099 25.8525C448.195 25.8636 448.271 25.8875 448.361 25.9059C448.533 25.9409 448.692 25.9961 448.883 26.009C449.075 26.0219 449.298 25.9961 449.508 25.9869C449.719 25.9777 449.942 25.9501 450.133 25.9611C450.324 25.974 450.483 26.0274 450.662 26.0605C450.745 26.0771 450.847 26.1047 450.93 26.1028C451.351 26.0918 451.765 26.0715 452.186 26.055C452.447 26.1047 452.67 26.1765 452.983 26.193C453.18 26.2041 453.391 26.1838 453.595 26.1875C453.684 26.1893 453.798 26.2169 453.843 26.2409C453.869 26.2556 453.786 26.2924 453.722 26.3108C453.48 26.3807 453.148 26.3679 452.849 26.3899C452.524 26.4139 452.23 26.4065 451.982 26.3347C451.816 26.2869 451.631 26.2611 451.427 26.2703C450.898 26.2943 450.375 26.3219 449.846 26.3421C449.757 26.3458 449.648 26.3292 449.565 26.3163C448.896 26.2041 448.896 26.2004 448.424 26.2243C447.729 26.2593 447.73 26.2593 447.264 26.1617C447.175 26.1433 447.079 26.1084 447.003 26.1102C446.263 26.1397 445.53 26.1691 444.797 26.2114C444.555 26.2243 444.389 26.2243 444.211 26.1765C444.058 26.136 443.879 26.09 443.688 26.0789C443.49 26.0679 443.273 26.0955 443.063 26.1047C442.853 26.1139 442.63 26.1378 442.445 26.1231C442.253 26.1084 442.088 26.0568 441.922 26.02C441.75 25.9814 441.565 25.9832 441.329 25.9979C440.602 26.0402 440.596 26.0347 439.875 25.9206C439.793 25.9077 439.684 25.893 439.595 25.8967C439.066 25.9188 438.543 25.9464 438.014 25.9685C437.81 25.9777 437.612 25.9538 437.472 25.9004C437.415 25.8783 437.434 25.8415 437.396 25.7697C437.351 25.7531 437.402 25.7826 437.415 25.8102C437.51 25.8065 437.625 25.8102 437.695 25.7955C437.874 25.7605 437.963 25.7145 437.918 25.6758C437.893 25.6556 437.772 25.6298 437.695 25.6298C437.555 25.6298 437.434 25.6703 437.396 25.7697C436.994 25.8304 436.567 25.8433 436.152 25.8728C435.91 25.8912 435.757 25.882 435.566 25.8341C435.336 25.7752 435.101 25.7182 434.724 25.7476C434.316 25.7807 433.883 25.7863 433.462 25.812C432.978 25.8415 432.767 25.6758 432.359 25.6795C431.939 25.6832 431.518 25.7145 431.097 25.7366C430.727 25.755 430.727 25.755 429.962 25.6353C429.682 25.5912 429.35 25.6556 429.076 25.6096C428.891 25.5801 428.732 25.536 428.553 25.5047C428.477 25.4918 428.356 25.4918 428.26 25.4955C427.731 25.5176 427.196 25.5323 426.686 25.5728C426.105 25.6206 425.666 25.5691 425.251 25.4605C424.729 25.4808 424.199 25.4918 423.683 25.5268C423.307 25.5525 423.09 25.4918 422.835 25.4421C422.746 25.4255 422.669 25.3979 422.574 25.3906C422.478 25.3832 422.363 25.3979 422.261 25.4034C421.841 25.4237 421.407 25.4329 420.999 25.466C420.495 25.5084 420.304 25.3574 419.915 25.339C419.654 25.4292 419.514 25.5525 418.997 25.5617C418.577 25.5691 418.156 25.5985 417.735 25.6188C417.525 25.628 417.314 25.639 417.104 25.6482C416.766 25.6648 416.607 25.7366 416.677 25.847C416.715 25.9077 416.747 25.9685 416.779 26.0292C416.843 26.1378 416.683 26.2298 416.415 26.2427C415.676 26.2777 414.943 26.3145 414.203 26.3458C414.006 26.355 413.814 26.3237 413.655 26.274C413.489 26.2243 413.304 26.2022 413.1 26.2114C412.361 26.2464 411.628 26.2832 410.888 26.3145C410.805 26.3182 410.697 26.2998 410.614 26.285C410.436 26.2519 410.264 26.2133 410.091 26.1783C409.671 26.1949 409.256 26.2059 408.842 26.228C408.173 26.2611 408.173 26.2629 407.682 26.1617C407.592 26.1433 407.503 26.1084 407.42 26.1102C407.102 26.1176 406.789 26.136 406.471 26.1525C405.533 26.2004 405.533 26.2004 405.259 26.1452C405.011 26.0936 404.787 26.0311 404.411 26.0605C404.003 26.0936 403.57 26.1047 403.149 26.1231C402.837 26.136 402.524 26.1507 402.212 26.1544C402.129 26.1562 402.04 26.1212 401.951 26.1028C401.696 26.0458 401.447 25.9998 401.096 26.0311C400.892 26.0495 400.676 26.0531 400.465 26.0623C399.917 26.0881 399.917 26.0881 399.018 25.9777C398.929 25.9666 398.82 25.9538 398.731 25.9593C397.992 25.9924 397.259 26.0292 396.519 26.0605C396.43 26.0642 396.321 26.0531 396.232 26.0439C395.225 25.9372 395.225 25.9372 394.154 25.9887C393.746 26.0071 393.733 26.0145 393.306 25.9169C393.115 25.8746 392.955 25.8544 392.732 25.8672C391.891 25.9114 391.043 25.9409 390.208 25.9924C389.832 26.0145 389.615 25.9593 389.36 25.9096C389.271 25.893 389.175 25.8562 389.099 25.8581C388.257 25.893 387.415 25.9354 386.574 25.9703C386.497 25.974 386.402 25.9372 386.313 25.9206C386.141 25.8875 385.975 25.8378 385.783 25.8268C385.586 25.8157 385.369 25.8433 385.152 25.8525C384.623 25.8765 384.623 25.8746 384.011 25.766C383.928 25.7513 383.82 25.7311 383.737 25.7347C382.896 25.7716 382.048 25.8028 381.213 25.8562C380.735 25.8857 380.409 25.8323 380.072 25.755C380.001 25.7384 379.88 25.7311 379.791 25.7347C378.841 25.7771 377.898 25.8249 376.948 25.8672C376.75 25.8765 376.559 25.8452 376.4 25.7973C376.145 25.7219 375.845 25.7311 375.526 25.7476C374.793 25.7863 374.787 25.7844 374.353 25.6961C374.264 25.6777 374.187 25.6538 374.092 25.6446C374.003 25.6354 373.888 25.6409 373.792 25.6446C373.371 25.663 372.951 25.6832 372.53 25.7034C372.109 25.7237 371.682 25.7347 371.268 25.766C370.758 25.8047 370.515 25.685 370.158 25.6298C369.636 25.6537 369.1 25.6685 368.584 25.7071C368.188 25.7366 368.004 25.6556 367.742 25.6133C367.653 25.5985 367.557 25.5673 367.474 25.5709C366.525 25.6114 365.575 25.6556 364.631 25.7053C364.402 25.7163 364.249 25.7016 364.058 25.6574C363.63 25.558 363.611 25.5617 362.897 25.5985C362.585 25.6151 362.285 25.6298 362.017 25.5544C361.782 25.4863 361.495 25.4697 361.157 25.4918C360.743 25.5194 360.315 25.5341 359.895 25.5525C359.474 25.5728 359.053 25.6004 358.632 25.6096C358.295 25.6188 358.091 25.5323 357.823 25.4881C357.74 25.4752 357.625 25.4734 357.53 25.4771C357.109 25.4936 356.675 25.5065 356.267 25.5378C355.77 25.5764 355.496 25.4752 355.145 25.4163C355.069 25.4035 354.941 25.4108 354.846 25.4163C354.106 25.4495 353.373 25.4863 352.633 25.5212C352.372 25.4715 352.104 25.4237 351.843 25.374C351.422 25.3924 351.001 25.4127 350.581 25.4311C350.262 25.4458 349.937 25.4513 349.637 25.4789C349.248 25.5157 349.057 25.4292 348.796 25.3869C348.706 25.3722 348.611 25.3409 348.528 25.3446C347.999 25.3648 347.47 25.3869 346.947 25.4182C346.45 25.4495 346.252 25.2838 345.844 25.2857C345.423 25.2875 344.99 25.3114 344.582 25.3446C344.11 25.3832 343.779 25.3243 343.441 25.2452C343.371 25.2286 343.25 25.2194 343.16 25.2231C342.631 25.2452 342.108 25.2728 341.579 25.2949C341.49 25.2985 341.382 25.2894 341.292 25.2783C340.285 25.1697 340.285 25.1679 339.845 25.19C339.533 25.2047 339.214 25.2231 338.895 25.2323C338.806 25.236 338.698 25.2194 338.615 25.2047C337.952 25.0924 337.952 25.0906 337.474 25.1127C337.053 25.1329 336.632 25.1531 336.211 25.1734C335.95 25.1237 335.682 25.0759 335.421 25.0262C334.898 25.0501 334.363 25.0685 333.846 25.1016C333.604 25.1163 333.445 25.1108 333.26 25.0648C333.03 25.0096 332.801 24.9452 332.418 24.9765C332.01 25.0096 331.577 25.0133 331.162 25.0409C330.665 25.074 330.461 24.9065 330.06 24.9084C329.639 24.9102 329.205 24.9341 328.797 24.9673C328.326 25.0059 327.994 24.947 327.656 24.8679C327.586 24.8513 327.465 24.8421 327.376 24.8458C326.216 24.8992 325.062 24.9525 323.901 25.0096C323.187 25.0446 323.187 25.0464 321.83 24.9452C321.734 24.9378 321.632 24.9305 321.536 24.9341C321.115 24.9507 320.682 24.9636 320.274 24.9949C319.777 25.0335 319.503 24.9341 319.152 24.8734C319.075 24.8605 318.954 24.8679 318.852 24.8715C318.534 24.8844 318.221 24.901 317.902 24.9157C317.482 24.936 317.061 24.9562 316.64 24.9765C316.379 24.9286 316.111 24.8789 315.85 24.8311C315.327 24.855 314.791 24.8679 314.275 24.9065C313.88 24.936 313.695 24.8587 313.434 24.8145C313.344 24.7998 313.249 24.7685 313.166 24.7703C312.216 24.8108 311.266 24.8532 310.323 24.9047C309.934 24.9268 309.755 24.8439 309.494 24.8016C309.405 24.7887 309.303 24.7648 309.22 24.7685C308.589 24.7943 307.958 24.8255 307.326 24.8568C306.969 24.8752 306.969 24.8752 306.192 24.7611C306.102 24.7482 306 24.7354 305.911 24.739C303.909 24.8311 301.914 24.9286 299.912 25.0206C299.708 25.0298 299.523 25.0022 299.364 24.9525C299.198 24.9028 299.013 24.8771 298.809 24.8863C297.968 24.9249 297.12 24.9599 296.285 25.0078C295.941 25.028 295.666 25.0041 295.431 24.9396C295.252 24.8918 295.086 24.8734 294.863 24.8844C294.442 24.9065 294.022 24.9249 293.601 24.9452C293.18 24.9654 292.759 24.9857 292.339 25.0059C291.918 25.0262 291.491 25.0372 291.077 25.0685C290.566 25.1071 290.318 24.993 289.967 24.936C289.336 24.9636 288.705 24.9912 288.08 25.0206C287.239 25.0593 286.397 25.1016 285.556 25.1384C285.479 25.1421 285.384 25.109 285.294 25.0924C285.033 25.0464 284.842 24.982 284.453 25.0022C282.566 25.0998 280.666 25.1826 278.773 25.2783C278.377 25.2986 278.205 25.2194 277.938 25.1771C277.848 25.1642 277.746 25.1384 277.663 25.1421C276.612 25.1881 275.56 25.2396 274.508 25.2893C274.081 25.3096 274.081 25.3096 273.367 25.1955C273.284 25.1826 273.175 25.166 273.086 25.1697C271.715 25.2323 270.351 25.2985 268.981 25.363C268.777 25.3722 268.592 25.3464 268.426 25.2967C268.267 25.247 268.075 25.2194 267.878 25.2286C266.616 25.2875 265.347 25.3446 264.091 25.409C263.753 25.4274 263.473 25.4108 263.23 25.3446C263.058 25.2967 262.886 25.2765 262.669 25.2875C260.776 25.3777 258.883 25.4642 256.989 25.5599C256.626 25.5783 256.371 25.5433 256.141 25.4826C255.957 25.4347 255.797 25.4255 255.568 25.4329C255.325 25.4421 255.179 25.4623 255.045 25.5176C254.873 25.5893 254.764 25.6795 254.356 25.685C253.936 25.6906 253.509 25.7127 253.094 25.744C252.699 25.7752 252.514 25.6924 252.265 25.6427C252.081 25.6077 251.908 25.6022 251.673 25.6188C251.456 25.6335 251.322 25.6648 251.194 25.7237C250.914 25.8488 250.888 25.8488 250.544 25.7697C250.359 25.7274 250.193 25.6942 249.989 25.7016C249.148 25.7384 248.306 25.7789 247.465 25.8212C246.98 25.8452 246.974 25.8488 246.611 25.7568C246.432 25.7108 246.26 25.6887 246.05 25.6998C243.736 25.8102 241.422 25.9169 239.107 26.0329C238.75 26.0513 238.508 26.0126 238.253 25.9574C238.17 25.939 238.087 25.9133 237.992 25.9059C237.896 25.8985 237.788 25.9059 237.686 25.9096C236.003 25.9887 234.313 26.0642 232.637 26.1525C232.254 26.1728 232.05 26.1139 231.789 26.066C231.7 26.0495 231.623 26.0237 231.527 26.0163C231.432 26.0108 231.317 26.0237 231.215 26.0292C229.532 26.1084 227.843 26.1838 226.166 26.2722C225.765 26.2924 225.592 26.2151 225.331 26.1746C225.242 26.1599 225.146 26.1323 225.063 26.136C224.534 26.1562 224.011 26.1838 223.482 26.2077C222.22 26.2685 220.958 26.3255 219.695 26.3881C219.211 26.412 219.001 26.2482 218.593 26.2556C218.063 26.2648 217.541 26.3016 217.012 26.3274C216.591 26.3476 216.17 26.366 215.749 26.3881C215.335 26.4084 215.335 26.4083 214.302 26.3016C214.213 26.2924 214.105 26.2795 214.015 26.2832C212.543 26.3513 211.064 26.4194 209.598 26.493C209.26 26.5096 208.979 26.5004 208.737 26.4323C208.565 26.3844 208.386 26.3605 208.176 26.3715C205.964 26.4764 203.758 26.5814 201.546 26.6844C201.463 26.6881 201.355 26.6697 201.272 26.655C201.093 26.6218 200.921 26.5832 200.749 26.5482C200.621 26.5906 200.456 26.6292 200.373 26.6771C200.258 26.7415 200.105 26.7599 199.863 26.7709C199.621 26.782 199.468 26.7783 199.276 26.7304C199.047 26.6715 198.811 26.6255 198.435 26.6439C196.121 26.7599 193.807 26.8648 191.492 26.9789C191.11 26.9973 190.932 26.9163 190.664 26.874C190.575 26.8611 190.472 26.8409 190.39 26.8445C189.44 26.8869 188.496 26.9329 187.546 26.9771C184.913 27.1022 182.281 27.2218 179.654 27.3544C179.176 27.3783 178.851 27.3323 178.513 27.2531C178.443 27.2366 178.322 27.2274 178.232 27.231C174.548 27.404 170.863 27.5789 167.185 27.7537C166.987 27.7629 166.796 27.7335 166.636 27.6856C166.47 27.6359 166.286 27.612 166.082 27.6212C164.399 27.7004 162.716 27.7795 161.033 27.8605C160.612 27.8807 160.606 27.8826 160.172 27.7942C160.083 27.7758 159.987 27.7409 159.917 27.7445C159.77 27.7537 159.63 27.7997 159.528 27.8623C159.426 27.9286 159.267 27.947 159.031 27.9599C158.789 27.9727 158.629 27.9672 158.444 27.9231C158.209 27.8678 157.992 27.8145 157.609 27.8329C152.771 28.0685 147.932 28.2948 143.093 28.5286C142.705 28.547 142.526 28.4697 142.258 28.4273C142.169 28.4145 142.08 28.396 141.984 28.3924C141.882 28.3887 141.774 28.3997 141.672 28.4053C133.78 28.7789 125.887 29.1543 117.995 29.5279C117.523 29.55 117.53 29.55 117.013 29.7194C116.95 29.7396 116.867 29.7672 116.777 29.7709C114.361 29.8887 111.939 30.0028 109.516 30.1169C108.464 30.1666 107.413 30.2181 106.361 30.266C105.985 30.2825 105.985 30.2825 105.086 30.4813C105.009 30.4979 104.92 30.52 104.831 30.5236C100.623 30.7243 96.4155 30.9249 92.2017 31.1218C91.8702 31.1365 91.6024 31.1696 91.4494 31.258C91.3411 31.3206 91.2008 31.3574 90.9905 31.3684C88.0452 31.5083 85.1 31.65 82.1484 31.7862C81.7978 31.8028 81.5873 31.8543 81.4152 31.9316C81.3578 31.9574 81.3068 31.9868 81.2239 32.0052C81.1474 32.0218 81.0327 32.0273 80.9371 32.0328C78.4126 32.1524 75.8881 32.2758 73.3572 32.3899C72.9811 32.4064 72.828 32.4745 72.6432 32.5463C72.5794 32.5702 72.5348 32.6034 72.4519 32.6199C72.369 32.6347 72.2479 32.6347 72.1459 32.6383C70.0422 32.7377 67.9385 32.839 65.8347 32.9383C65.4267 32.9291 65.3374 33.0359 65.1398 33.1003C65.0697 33.1224 65.0188 33.1518 64.9359 33.1666C64.8466 33.1813 64.7317 33.1794 64.6234 33.1831C62.9404 33.2622 61.2574 33.3469 59.568 33.4205C59.1792 33.4371 59.1026 33.531 58.8922 33.5954C58.8221 33.6156 58.7521 33.6469 58.6692 33.6524C57.6173 33.7058 56.5655 33.7555 55.5136 33.8033C55.163 33.8199 55.163 33.8181 54.5446 34.0003C54.4745 34.0205 54.3915 34.0426 54.3023 34.0481C52.7276 34.1254 51.1467 34.1991 49.5657 34.2745C49.3617 34.2837 49.2215 34.3279 49.1195 34.3905C49.0175 34.453 48.8709 34.4935 48.6669 34.5027C47.4046 34.5635 46.1422 34.626 44.88 34.6813C44.5294 34.696 44.2999 34.742 44.1469 34.8248C44.0322 34.8874 43.8919 34.9187 43.6688 34.9297C42.4065 34.9886 41.1443 35.053 39.8757 35.1046C39.506 35.1193 39.3146 35.1819 39.1616 35.2592C39.0405 35.3217 38.9002 35.3438 38.6644 35.3549C36.3502 35.4616 34.0298 35.5684 31.722 35.6861C31.3332 35.7064 31.1355 35.642 30.8805 35.596C30.5171 35.5315 30.1793 35.4616 30.1793 35.3181C30.1793 35.296 30.0709 35.2702 29.9944 35.2518C29.4271 35.1138 29.427 35.1138 29.3378 34.9665C29.2868 34.8764 29.2294 34.7843 29.1848 34.6923C29.1019 34.5414 28.8979 34.5027 28.3113 34.5303C28.101 34.5395 27.8906 34.5524 27.6802 34.5598C27.3679 34.5727 27.132 34.5119 27.0746 34.4015C27.0428 34.3408 27.0046 34.28 26.9727 34.2193C27.2914 34.2046 27.285 34.2027 27.846 33.98C28.0819 33.8862 28.082 33.8862 27.6293 33.7923C27.4572 33.7573 27.2914 33.7187 27.1065 33.6856C27.0237 33.6708 26.9153 33.6616 26.8261 33.6653C26.297 33.6874 25.7742 33.7132 25.2515 33.7389C24.41 33.7794 24.4099 33.7794 23.5556 33.5917C23.4855 33.577 23.3771 33.5494 23.3899 33.5346C23.46 33.4665 23.6321 33.4371 23.8488 33.4297C24.1676 33.4187 24.48 33.4003 24.7923 33.3856C25.0027 33.3764 25.2131 33.3653 25.4235 33.3561C25.6211 33.2862 25.8252 33.2181 26.0101 33.1463C26.3033 33.0359 26.3032 33.0322 25.9016 32.9549C25.6466 32.9034 25.3725 32.8573 25.1111 32.8095C24.7987 32.8242 24.48 32.8408 24.1676 32.8537C23.7723 32.8702 23.613 32.8353 23.511 32.7156C23.4217 32.6107 23.5301 32.5205 23.8361 32.4985C24.1485 32.4764 24.4418 32.4617 24.6012 32.3678C24.7542 32.2776 25.0219 32.2426 25.3534 32.2353C25.5638 32.2297 25.7742 32.2169 25.9845 32.2058C26.2587 32.1911 26.4053 32.0972 26.348 31.9923C26.3161 31.9242 26.2523 31.8672 26.0037 31.8525C24.9008 31.788 24.888 31.7899 24.3397 31.6647C24.2887 31.6537 24.2506 31.6206 24.2697 31.604C24.3016 31.5764 24.3717 31.5359 24.4482 31.5304C25.1813 31.4899 25.9144 31.4531 26.6476 31.4255C26.8898 31.4163 27.0683 31.4034 27.1512 31.3353C27.266 31.2414 27.215 31.1549 26.9918 31.0905C26.9217 31.0703 26.8069 31.0445 26.7304 31.0463C25.8889 31.0795 25.0538 31.1218 24.2123 31.1549C24.1358 31.1586 23.9956 31.1273 23.9637 31.1034C23.9 31.0592 23.9955 31.0003 24.2186 30.9801C24.5119 30.9525 24.8115 30.9506 25.0091 30.8586C25.2833 30.7279 25.6211 30.6083 25.9271 30.4832C25.9781 30.4611 26.0611 30.4187 26.042 30.415C25.8826 30.3745 25.6977 30.3433 25.5319 30.3046C25.2514 30.2402 25.2514 30.15 25.3151 30.0635C25.3661 29.9936 25.5574 29.966 25.7933 29.966C25.8953 29.966 26.0227 29.966 26.1056 29.9494C26.3224 29.9089 26.3925 29.8574 26.2841 29.8187C26.2204 29.7966 26.1057 29.7654 26.0292 29.7691C24.665 29.8298 23.2942 29.8887 21.9363 29.9641C21.5347 29.9862 21.35 29.9163 21.1077 29.8666C20.9228 29.8279 20.7506 29.8132 20.5211 29.8408C20.3044 29.8666 20.0941 29.8519 19.9602 29.7911C19.8518 29.7414 20.043 29.6991 20.5594 29.6513C20.655 29.6421 20.7634 29.6365 20.8335 29.6181C21.573 29.4194 21.573 29.4175 22.083 29.3918C22.5802 29.3678 22.5803 29.366 22.8417 29.2592C22.9628 29.2095 23.0966 29.1598 23.2113 29.1083C23.256 29.0881 23.3326 29.0513 23.3071 29.0402C23.1668 28.9832 22.9755 28.9703 22.7524 28.9832C22.2551 29.0145 21.6687 28.9887 21.4073 29.1635C21.3053 29.2298 21.1459 29.2482 20.9164 29.2592C18.6087 29.366 16.3009 29.4801 13.9867 29.5832C13.6106 29.5997 13.4386 29.6678 13.292 29.7433C13.1645 29.8059 13.0242 29.8243 12.7819 29.8353C12.5397 29.8464 12.3483 29.8519 12.2081 29.7911C12.1252 29.7543 12.1953 29.7028 12.3866 29.6513C12.6607 29.5776 12.6097 29.4856 12.5204 29.3991C12.4567 29.3421 12.2591 29.3016 12.0487 29.3053C11.7363 29.3126 11.4368 29.3329 11.1754 29.2592C11.0224 29.2169 10.8311 29.1874 10.659 29.1506C10.3275 29.0752 9.99598 28.9979 9.5306 29.0476C9.21185 29.0292 8.98873 28.9629 8.73373 28.9114C8.3066 28.8267 8.26835 28.8138 8.57435 28.7237C8.9186 28.6224 8.6508 28.4899 8.84205 28.3905C9.04605 28.2838 9.32665 28.1899 9.57527 28.0905C9.63902 28.0648 9.69642 28.0408 9.76017 28.0151C9.61355 27.9783 9.4797 27.9323 9.30757 27.9065C9.08445 27.8734 8.96969 27.8329 8.98244 27.7188C8.93782 27.7022 8.95681 27.7445 9.00781 27.7556C9.06519 27.7666 9.20554 27.7574 9.27567 27.7445C9.45417 27.7096 9.54332 27.6636 9.4987 27.6249C9.4732 27.6047 9.35217 27.5789 9.27567 27.5789C9.13542 27.5789 9.01431 27.6194 8.97606 27.7188C8.26206 27.7942 7.52244 27.831 6.78294 27.8605C6.70644 27.8642 6.61087 27.8274 6.52162 27.809C6.22837 27.7464 6.22833 27.7482 5.36771 27.7298C5.27846 27.728 5.15739 27.7022 5.11277 27.6764C4.92789 27.5642 4.93432 27.4409 4.84507 27.3212C5.01082 27.2439 5.17644 27.1685 5.34856 27.093C5.69281 26.9402 6.13916 26.8059 6.40691 26.6384C6.34954 26.5482 6.27303 26.458 6.55353 26.3844C7.3504 26.2924 7.34408 26.2924 7.56083 26.2041C8.1792 25.9538 8.79117 25.7016 9.43504 25.455C9.60717 25.3906 9.60719 25.3556 9.30119 25.328C9.20557 25.3206 9.10343 25.3188 9.00143 25.3225C8.68268 25.3354 8.36393 25.3685 8.05156 25.3611C7.73918 25.3556 7.50968 25.2746 7.25468 25.2249C6.99331 25.1734 6.73195 25.12 6.47057 25.0667C6.17094 25.0722 5.87138 25.1237 5.57175 25.0409C5.34225 24.9765 5.05539 24.9305 4.79402 24.8771C4.99164 24.7372 5.36145 24.6305 5.64832 24.5071C5.9097 24.3949 5.91593 24.3967 6.61718 24.3102C6.94868 24.2697 7.06344 24.0617 6.78294 24.001C6.44506 23.9274 6.08814 23.8593 5.74389 23.7894C5.44426 23.7949 5.13832 23.8446 4.85145 23.7618C4.62832 23.6992 4.37327 23.6568 4.00352 23.6808C3.37877 23.7213 2.74129 23.7415 2.11016 23.7746C1.89341 23.7857 1.65747 23.7783 1.56185 23.7158C1.4981 23.6716 1.68298 23.6108 1.89336 23.598C2.21211 23.5796 2.49895 23.5575 2.65833 23.4655C2.81133 23.3734 3.0918 23.3458 3.4233 23.3329C3.51255 23.3292 3.61462 23.3072 3.65925 23.2851C3.88875 23.1783 4.14377 23.0863 4.63464 23.09C4.83864 23.0532 4.94695 23.0072 4.8832 22.963C4.84495 22.9391 4.71114 22.9078 4.63464 22.9115C4.10552 22.9299 3.57641 22.9483 3.06003 22.9814C2.81778 22.9961 2.63281 22.9998 2.47981 22.9446C2.37143 22.9078 2.4288 22.8581 2.6328 22.8047C2.8113 22.7587 2.86236 22.7053 2.84961 22.6427C2.81773 22.4973 2.62645 22.455 2.01445 22.4642C1.57457 22.4716 1.46619 22.4477 1.37056 22.3225C1.34506 22.2931 1.28143 22.2526 1.32605 22.2323C1.60018 22.1072 1.77869 21.9526 2.29506 21.8937C2.49906 21.8716 2.71573 21.8716 2.84323 21.8237C2.97073 21.7759 3.08553 21.7207 3.21941 21.6747C3.38516 21.6194 3.4998 21.5679 3.4233 21.533C3.2958 21.4704 3.09187 21.4649 2.85599 21.4869C2.65199 21.5054 2.43525 21.5072 2.22487 21.5182C1.84875 21.5385 1.54281 21.4906 1.49819 21.4096C1.37706 21.1961 1.24953 20.9845 1.14115 20.771C1.1284 20.7452 1.16019 20.7121 1.21119 20.69C1.38969 20.6127 1.58101 20.5391 1.76589 20.4636C1.98264 20.3771 2.32695 20.3937 2.6202 20.3771C3.03457 20.3532 3.03443 20.355 3.58905 20.1784C3.8058 20.1084 4.18195 20.136 4.40507 20.0735C4.4752 20.0532 4.58357 20.0201 4.56445 20.0017C4.53895 19.9778 4.41152 19.9593 4.31589 19.9483C4.22664 19.9373 4.11829 19.9317 4.02267 19.9373C2.86242 19.9906 1.70857 20.0477 0.548319 20.0992C0.350694 20.1084 0.133937 20.0679 0.0638123 20.0109C-0.00631275 19.9575 0.01275 19.8931 0 19.8323C0.184875 19.7569 0.395169 19.687 0.554545 19.606C0.67567 19.5434 0.815945 19.5158 1.0582 19.5121C1.37695 19.5066 1.68935 19.4845 2.04635 19.4679C2.70935 19.1992 3.35956 18.9176 4.07356 18.6489C4.36044 18.5403 4.29042 18.4299 4.3478 18.314C4.40517 18.2072 4.83227 18.2238 5.11915 18.1925C5.34865 18.1667 5.42505 18.1078 5.3358 18.0673C5.2848 18.0434 5.17011 18.0158 5.08086 18.0158C4.87049 18.0158 4.66012 18.0324 4.44974 18.0416C4.23937 18.0508 3.99713 18.0453 3.825 18.0766C3.65925 18.106 3.55082 18.1686 3.44244 18.2219C3.32132 18.2808 3.16205 18.3011 2.9198 18.3048C2.60743 18.3085 2.29507 18.325 1.9827 18.3379C1.63845 18.2661 1.28137 18.1962 0.94987 18.1207C0.88612 18.106 0.873301 18.0637 0.879676 18.0361C0.892426 17.9643 0.796826 17.9201 0.586451 17.8851C0.407951 17.8557 0.261313 17.8134 0.0955629 17.7766C0.223063 17.7269 0.363363 17.679 0.465363 17.6256C0.688488 17.5134 0.96902 17.4324 1.45352 17.4361C1.64477 17.3643 1.79773 17.276 2.04635 17.2263C2.28223 17.1784 2.68387 17.2262 2.86237 17.1177C2.95162 17.0643 3.08557 17.0035 3.2577 16.9815C3.53182 16.9465 3.88882 16.9649 4.04819 16.8619C4.14382 16.803 4.28401 16.7496 4.46889 16.7348C4.67926 16.7183 4.89596 16.7146 5.04896 16.6796C5.13183 16.6612 5.22109 16.6318 5.22109 16.606C5.22109 16.5895 5.09369 16.5637 5.00444 16.5526C4.92157 16.5398 4.81307 16.5306 4.71744 16.5342C4.39869 16.5453 4.08632 16.5655 3.76757 16.5766C3.67832 16.5802 3.57635 16.5674 3.48073 16.5563C3.20023 16.5269 3.21932 16.4901 3.44244 16.4238C3.66557 16.3594 3.82503 16.2766 4.0099 16.2011C4.2139 16.1882 4.46887 16.1937 4.60912 16.1588C4.84499 16.1017 5.0107 16.0189 5.20195 15.9471C5.41232 15.9361 5.62906 15.9324 5.82669 15.9122C5.90956 15.9048 5.94784 15.8643 6.01797 15.8404C6.14547 15.7944 6.25393 15.7281 6.42606 15.706C6.70656 15.6729 7.0508 15.6858 7.21655 15.5846C7.31218 15.5257 7.45875 15.4631 7.63725 15.4594C8.1345 15.4521 8.34488 15.3508 8.59988 15.2551C8.79113 15.1833 9.19914 15.2201 9.40952 15.1484C9.54977 15.1024 9.65183 15.0453 9.79208 15.0011C9.84945 14.9827 9.97054 14.9735 10.0662 14.968C10.5889 14.9404 11.118 14.9201 11.6408 14.8907C11.7236 14.8852 11.8002 14.8576 11.864 14.8355C11.9978 14.7876 12.0806 14.7214 12.2464 14.6901C12.4121 14.6588 12.648 14.6588 12.852 14.6496C13.5086 14.622 13.5596 14.6293 13.8593 14.4729C14.1015 14.3459 14.6945 14.4361 14.8921 14.2962C15.0068 14.2152 15.2171 14.149 15.5932 14.1398C16.1224 14.1269 16.6451 14.0919 17.1742 14.068C17.646 14.0459 17.6396 14.0459 18.1496 13.8748C18.3791 13.7975 18.7171 13.8085 19.0167 13.7938C19.3354 13.7791 19.6287 13.757 19.7817 13.665C19.9347 13.5748 20.2151 13.5453 20.5403 13.5324C20.8399 13.5195 21.1778 13.5288 21.4137 13.4551C21.9875 13.2785 21.9811 13.2766 22.3827 13.2582C23.0138 13.2288 23.645 13.1993 24.2761 13.168C24.6968 13.1478 25.1367 13.1441 25.5319 13.1036C25.8188 13.0742 25.9463 12.9711 26.1311 12.8993C26.6539 12.8717 27.1766 12.8441 27.6994 12.8183C28.4325 12.7815 29.172 12.7484 29.9115 12.7134C30.2302 12.6435 30.275 12.4889 30.8105 12.4815C31.1292 12.4778 31.4416 12.4539 31.7603 12.4392C32.2895 12.4134 32.8122 12.3803 33.3413 12.3674C33.7429 12.3582 33.813 12.2588 34.0233 12.1962C34.0935 12.1742 34.1573 12.1429 34.2401 12.1374C35.0689 12.0858 35.9231 12.0748 36.7327 11.9993C36.8156 11.992 36.8921 11.9533 36.9112 11.9257C36.924 11.911 36.8156 11.8834 36.7455 11.8705C36.6626 11.8558 36.5543 11.8411 36.465 11.8447C33.8321 11.968 31.1993 12.0932 28.5664 12.2165C28.1967 12.2349 28.1967 12.2331 27.2978 12.4355C27.2213 12.4521 27.132 12.4705 27.0363 12.476C26.6156 12.4981 26.1885 12.511 25.7741 12.5386C25.4362 12.5607 25.1558 12.5386 24.9136 12.4723C24.7415 12.4245 24.5629 12.4097 24.3461 12.4134C24.1039 12.419 23.9446 12.4392 23.8043 12.4889C23.6195 12.557 23.5238 12.6453 23.1349 12.6637C21.3435 12.7429 19.5521 12.8312 17.7671 12.9159C17.5184 12.8901 17.3973 12.8515 17.4611 12.8055C17.4993 12.7778 17.5759 12.741 17.6524 12.7374C18.3855 12.6987 19.125 12.6656 19.8581 12.6288C19.9601 12.6233 20.1003 12.6269 20.1577 12.6085C20.4382 12.5257 20.5403 12.3913 21.0694 12.3821C21.3754 12.3766 21.6878 12.349 21.981 12.3232C22.0639 12.3159 22.1404 12.2772 22.1595 12.2496C22.1659 12.2349 22.0639 12.2073 21.9874 12.1944C21.7069 12.141 21.3818 12.2055 21.1013 12.1687C21.0057 12.1558 20.8717 12.1374 20.8526 12.1153C20.8399 12.095 20.9483 12.0619 21.0248 12.0417C21.0949 12.0232 21.1905 12.0067 21.2861 12.0012C22.1276 11.9588 22.9692 11.9147 23.8107 11.8815C24.155 11.8687 24.3972 11.8226 24.5502 11.738C24.6649 11.6754 24.8052 11.6423 25.0219 11.6331C26.4945 11.565 27.9671 11.4895 29.4461 11.4269C29.8159 11.4122 30.0072 11.3515 30.1602 11.2724C30.2813 11.2098 30.4216 11.1877 30.6575 11.1766C32.7676 11.0809 34.8649 10.9742 36.975 10.8822C37.3639 10.8656 37.4787 10.7865 37.6764 10.7184C37.7465 10.6944 37.791 10.665 37.8802 10.6503C37.9695 10.6355 38.0842 10.6374 38.1926 10.6337C39.8756 10.5546 41.5587 10.4699 43.2481 10.3963C43.6434 10.3797 43.7197 10.2877 43.9237 10.2233C43.9939 10.203 44.0577 10.1699 44.1405 10.1644C45.4028 10.1018 46.665 10.0429 47.9273 9.98218C48.7688 9.94169 49.6102 9.9012 50.4517 9.86255C50.8661 9.84414 50.8661 9.84229 51.4271 9.66745C51.4909 9.6472 51.5802 9.62327 51.6631 9.61775C54.0856 9.49996 56.5016 9.38771 58.9241 9.27176C59.1281 9.26256 59.2747 9.22021 59.3767 9.15763C59.4787 9.09506 59.6255 9.05273 59.8231 9.04352C61.7165 8.9515 63.6098 8.86132 65.5096 8.77482C65.8538 8.7601 66.096 8.71592 66.249 8.6331C66.3638 8.57053 66.504 8.53741 66.7208 8.52821C68.6141 8.43986 70.5076 8.34599 72.4074 8.26132C72.7708 8.24476 72.9492 8.18219 73.1277 8.10857C73.1914 8.08281 73.2425 8.04047 73.319 8.03679C74.2625 7.98526 75.1996 7.93188 76.1494 7.89692C76.5447 7.88219 76.6786 7.80489 76.838 7.73127C76.9655 7.67237 77.1121 7.65213 77.3544 7.64477C77.8835 7.62821 78.4062 7.59693 78.9226 7.56565C78.9991 7.56012 79.0948 7.51963 79.1011 7.49386C79.1139 7.44601 78.9672 7.41288 78.725 7.39631C76.2005 7.51594 73.6696 7.63557 71.1451 7.7552C70.7308 7.77544 70.7307 7.77545 70.1697 7.9503C70.106 7.97054 70.0167 7.99447 69.9274 7.99999C67.5049 8.11594 65.0889 8.23005 62.6664 8.346C62.4623 8.3552 62.3158 8.39753 62.2137 8.46011C62.1117 8.52269 61.965 8.56502 61.7674 8.57422C59.4532 8.68465 57.1392 8.79692 54.8187 8.90183C54.4744 8.91655 54.2322 8.95886 54.0792 9.04352C53.9645 9.1061 53.8242 9.13924 53.6075 9.14844C51.3954 9.25151 49.1895 9.36009 46.971 9.45947C46.7479 9.46867 46.5822 9.4153 46.595 9.36561C46.6014 9.33984 46.6968 9.29753 46.7733 9.29385C47.9272 9.23311 49.0748 9.17053 50.2351 9.12452C50.624 9.10979 50.7386 9.02881 50.9362 8.96071C51 8.93679 51.051 8.9055 51.1339 8.89262C51.2232 8.87789 51.3379 8.87974 51.4463 8.87606C54.1812 8.74538 56.9161 8.61287 59.6574 8.48956C60.0526 8.47116 60.129 8.38096 60.333 8.31655C60.4031 8.29446 60.4669 8.26134 60.5498 8.25766C61.3913 8.21349 62.2328 8.17484 63.0743 8.13619C64.5469 8.06625 66.0195 7.99631 67.4985 7.92637C67.9256 7.90612 67.9256 7.90612 68.4739 7.73311C68.5376 7.71287 68.627 7.68712 68.7098 7.68344C72.605 7.49755 76.5002 7.31166 80.3953 7.12761C80.5993 7.11841 80.7459 7.07608 80.8479 7.0135C80.9499 6.95277 81.0965 6.9086 81.2941 6.89755C86.5599 6.64725 91.8193 6.39694 97.085 6.15031C97.4293 6.13375 97.6715 6.0951 97.8245 6.00859C97.9328 5.94602 98.0794 5.9129 98.2962 5.90185C104.085 5.62762 109.873 5.3534 115.668 5.07733C119.563 4.89328 123.458 4.70555 127.354 4.52519C127.711 4.50862 127.902 4.45156 128.08 4.3761C128.138 4.35033 128.195 4.308 128.271 4.30432C129.107 4.25831 129.942 4.21598 130.777 4.17365C131.038 4.22335 131.3 4.27121 131.561 4.3209C131.759 4.25096 131.95 4.17918 132.148 4.10924C133.41 4.05587 134.653 3.97304 135.928 3.94728C136.011 3.94544 136.1 3.98041 136.189 3.99882C136.782 4.11477 137.12 4.10556 137.496 3.95096C137.63 3.89575 137.745 3.84606 137.949 3.83685C138.58 3.80373 139.217 3.78164 139.842 3.74299C140.18 3.72274 140.461 3.74114 140.703 3.8074C140.875 3.85525 141.053 3.87551 141.264 3.86447C142.424 3.80925 143.578 3.75587 144.738 3.69698C144.821 3.6933 144.897 3.662 144.961 3.63991C145.095 3.59206 145.21 3.54054 145.337 3.49085C145.51 3.52213 145.701 3.54606 145.841 3.58655C146.02 3.63441 146.185 3.6344 146.428 3.62151C151.056 3.39882 155.69 3.18164 160.319 2.95711C160.714 2.9387 160.886 3.01601 161.154 3.0565C161.243 3.07122 161.332 3.08962 161.428 3.0933C161.53 3.09698 161.638 3.08595 161.74 3.08043C165.215 2.91478 168.689 2.75097 172.163 2.58533C172.622 2.56324 172.622 2.56324 173.305 2.67735C173.387 2.69207 173.496 2.70864 173.585 2.70312C175.166 2.63134 176.747 2.55405 178.322 2.48043C178.526 2.47123 178.698 2.50067 178.883 2.543C179.246 2.62582 179.271 2.62583 179.539 2.50436C179.667 2.4473 179.801 2.41232 180.011 2.39575C180.24 2.37735 180.425 2.38289 180.604 2.41602C180.859 2.46203 181.044 2.53932 181.433 2.51907C183.116 2.43257 184.805 2.3608 186.482 2.27246C186.864 2.25221 187.068 2.31478 187.323 2.3608C187.413 2.37736 187.495 2.40313 187.591 2.40865C187.687 2.41417 187.801 2.40128 187.903 2.39575C190.007 2.29637 192.117 2.19884 194.215 2.09209C194.61 2.07185 194.782 2.15097 195.05 2.19146C195.139 2.20619 195.241 2.23197 195.324 2.22829C196.586 2.17123 197.855 2.11048 199.117 2.04974C199.57 2.02766 199.57 2.0295 200.258 2.14177C200.341 2.15649 200.449 2.17122 200.539 2.16754C202.011 2.09944 203.49 2.0295 204.963 1.95956C205.415 1.93748 205.415 1.93748 206.722 2.03319C206.818 2.04055 206.92 2.05161 207.016 2.04792C208.699 1.96878 210.388 1.89147 212.071 1.80681C212.409 1.79025 212.689 1.80497 212.932 1.87122C213.104 1.91908 213.282 1.93933 213.493 1.92829C215.386 1.83811 217.286 1.75161 219.173 1.6559C219.536 1.6375 219.772 1.67797 220.027 1.73135C220.11 1.74975 220.193 1.77552 220.288 1.78289C220.384 1.79025 220.492 1.78288 220.594 1.77736C222.488 1.68718 224.387 1.60252 226.274 1.50497C226.657 1.48473 226.861 1.5473 227.116 1.59331C227.205 1.60988 227.301 1.64301 227.377 1.64117C228.117 1.60988 228.856 1.58228 229.589 1.53627C229.985 1.5105 230.157 1.59515 230.425 1.63564C230.514 1.64852 230.616 1.67614 230.699 1.67246C232.28 1.60068 233.861 1.52523 235.435 1.44793C235.659 1.43689 235.824 1.45344 236.003 1.50129C236.239 1.56571 236.513 1.59147 236.857 1.57123C237.59 1.5289 238.33 1.49946 239.069 1.46449C239.503 1.44424 239.503 1.44425 240.829 1.53995C240.924 1.54732 241.026 1.55835 241.122 1.55467C242.384 1.49577 243.653 1.43872 244.909 1.37431C245.246 1.3559 245.527 1.37246 245.769 1.43872C245.941 1.48657 246.113 1.50683 246.33 1.49578C247.49 1.44057 248.644 1.38535 249.805 1.33014C250.225 1.30989 250.646 1.27491 251.067 1.27491C251.373 1.27676 251.596 1.36509 251.87 1.40927C251.947 1.42215 252.074 1.40744 252.176 1.40376C253.649 1.33382 255.128 1.2694 256.594 1.19026C256.977 1.17002 257.181 1.23259 257.436 1.2786C257.525 1.29516 257.62 1.32829 257.697 1.32645C258.226 1.30621 258.749 1.2786 259.278 1.25467C259.909 1.22522 260.547 1.20314 261.171 1.16265C261.681 1.12952 261.872 1.28964 262.28 1.29516C262.593 1.30068 262.912 1.2694 263.224 1.25467C263.855 1.22522 264.486 1.1921 265.117 1.16633C265.34 1.15713 265.513 1.12767 265.583 1.06141C265.596 1.04853 265.487 1.02094 265.417 1.00437C264.569 0.816644 264.569 0.816635 263.715 0.857125C263.186 0.882892 262.663 0.908663 262.134 0.930748C262.045 0.934429 261.943 0.919706 261.853 0.908663C261.598 0.877375 261.624 0.84057 261.841 0.774313C262.057 0.708056 262.223 0.627083 262.408 0.551623C262.669 0.599476 262.924 0.647311 263.186 0.695163C263.396 0.685961 263.607 0.674934 263.817 0.665732C264.869 0.617879 265.921 0.568183 266.973 0.524012C267.049 0.520331 267.145 0.557146 267.234 0.57555C267.489 0.628924 267.718 0.674923 268.088 0.654678C269.032 0.601304 269.982 0.562655 270.925 0.516643C271.339 0.496398 271.339 0.496399 272.066 0.610509C272.149 0.623392 272.257 0.638116 272.347 0.634436C273.297 0.592105 274.24 0.546098 275.19 0.501927C275.394 0.492725 275.592 0.51665 275.738 0.570024C275.796 0.592109 275.783 0.628911 276.025 0.930748C276.777 1.17553 277.294 1.14978 277.816 1.12769C278.04 1.11849 278.237 1.10928 278.384 1.07247C278.46 1.05222 278.556 1.02277 278.556 0.998845C278.556 0.98044 278.416 0.950987 278.326 0.947306C277.695 0.910497 277.096 0.987807 276.478 1.00437C276.191 1.01173 275.942 0.947316 275.891 0.842409C275.878 0.812962 275.859 0.781676 275.84 0.752228C275.821 0.722781 275.808 0.691495 275.789 0.662047C275.541 0.652845 275.394 0.685968 275.286 0.748544C275.196 0.800077 275.069 0.858972 274.897 0.886579C274.725 0.916026 274.489 0.910515 274.278 0.919717C274.074 0.928919 273.851 0.952843 273.66 0.939959C273.469 0.925236 273.316 0.871853 273.137 0.838725C273.054 0.822161 272.952 0.798243 272.869 0.801924C272.136 0.833212 271.41 0.864489 270.683 0.904979C270.3 0.927065 270.109 0.849777 269.867 0.801924C269.676 0.765115 269.484 0.774306 269.452 0.858967C269.37 1.06142 269.663 1.14608 270.313 1.10743C270.849 1.0743 271.333 1.06879 271.754 1.19394C271.811 1.21051 271.945 1.21787 272.028 1.21419C272.551 1.1921 273.067 1.16449 273.59 1.14241C273.685 1.13873 273.788 1.14608 273.877 1.15344C275.177 1.25282 275.177 1.25467 275.617 1.23259C275.827 1.22154 276.031 1.21234 276.012 0.93259C276.414 0.632594 277.051 0.612353 277.67 0.568181C278.071 0.540574 278.243 0.621559 278.505 0.663889C278.594 0.678613 278.69 0.708055 278.773 0.704374C280.143 0.643639 281.508 0.579213 282.872 0.511116C283.101 0.500073 283.267 0.511118 283.445 0.55897C283.675 0.619705 283.93 0.658363 284.293 0.636278C285.02 0.592107 285.76 0.564506 286.499 0.527696C286.875 0.509292 286.875 0.509273 287.634 0.623382C287.717 0.636265 287.825 0.65099 287.914 0.647309C288.654 0.616021 289.387 0.577383 290.12 0.544254C290.324 0.535052 290.509 0.560816 290.668 0.610509C290.828 0.660201 291.019 0.685965 291.217 0.676763C291.956 0.643634 292.689 0.606837 293.422 0.573708C293.512 0.570027 293.62 0.58291 293.703 0.595793C294.481 0.709902 294.481 0.709883 294.838 0.691478C295.36 0.663871 295.896 0.651002 296.412 0.614193C296.916 0.577384 297.177 0.684122 297.522 0.743017C298.465 0.700686 299.415 0.665726 300.352 0.614193C300.735 0.592107 300.939 0.652837 301.194 0.70069C301.283 0.717254 301.372 0.752226 301.455 0.750386C301.774 0.743024 302.086 0.722782 302.399 0.708059C302.711 0.693335 303.03 0.678613 303.342 0.663889C303.699 0.717263 303.935 0.842413 304.445 0.800082C304.751 0.774316 305.076 0.768794 305.388 0.75407C305.701 0.739347 306.019 0.724625 306.332 0.709901C306.542 0.700699 306.759 0.695169 306.963 0.678605C307.339 0.650998 307.524 0.741192 307.792 0.781682C307.881 0.794565 307.983 0.816636 308.066 0.812956C308.697 0.787189 309.334 0.765105 309.953 0.722774C310.431 0.689646 310.756 0.744867 311.094 0.822167C311.164 0.838731 311.285 0.847932 311.374 0.844252C312.114 0.812964 312.847 0.774303 313.58 0.741175C313.778 0.731972 313.969 0.761419 314.128 0.809271C314.294 0.858964 314.479 0.882908 314.683 0.873705C315.416 0.840577 316.156 0.803757 316.889 0.770628C316.978 0.766947 317.086 0.781674 317.169 0.796398C317.883 0.910507 317.883 0.912349 318.304 0.890263C318.406 0.884742 318.514 0.881047 318.617 0.875525C319.139 0.849759 319.681 0.840569 320.191 0.796398C320.778 0.746705 321.205 0.809284 321.619 0.91419C322.142 0.892105 322.677 0.879219 323.187 0.842409C323.57 0.814802 323.774 0.884736 324.029 0.930748C324.118 0.947312 324.214 0.980441 324.29 0.97676C325.03 0.945472 325.769 0.917875 326.496 0.871863C326.891 0.846097 327.063 0.928902 327.331 0.971233C327.42 0.985957 327.516 1.01174 327.599 1.00806C328.02 0.993332 328.44 0.971236 328.861 0.950991C329.352 0.927065 329.352 0.928903 330.002 1.04117C330.308 1.09455 330.614 1.05221 330.914 1.03933C331.233 1.02461 331.532 1.01357 331.787 1.08903C331.947 1.13688 332.138 1.16633 332.336 1.15896C332.756 1.1424 333.183 1.12584 333.598 1.09824C333.929 1.07615 334.216 1.09087 334.458 1.15896C334.63 1.20682 334.809 1.23076 335.019 1.21971C335.963 1.17554 336.913 1.12951 337.856 1.08718C337.939 1.0835 338.054 1.10007 338.13 1.11664C338.309 1.14977 338.481 1.18657 338.653 1.22338C339.067 1.20681 339.495 1.19947 339.903 1.1737C340.336 1.14794 340.731 1.13873 341.069 1.23996C341.139 1.26204 341.241 1.29331 341.324 1.29147C341.643 1.28411 341.955 1.26571 342.268 1.25099C342.58 1.23626 342.899 1.22154 343.211 1.20682C343.575 1.25283 343.804 1.38534 344.314 1.34301C344.62 1.31724 344.945 1.31172 345.258 1.297C345.57 1.28228 345.889 1.26571 346.201 1.25283C346.303 1.24915 346.418 1.23994 346.507 1.2473C346.603 1.25467 346.686 1.28044 346.768 1.29884C347.023 1.35222 347.259 1.4056 347.623 1.37431C347.929 1.34854 348.254 1.34302 348.566 1.32645C348.993 1.30621 348.993 1.30621 349.701 1.42216C349.988 1.47001 350.313 1.40744 350.587 1.44793C350.772 1.47554 350.931 1.52154 351.11 1.55283C351.186 1.56571 351.307 1.57122 351.397 1.56754C351.817 1.55098 352.245 1.53442 352.659 1.50682C352.997 1.48473 353.277 1.50681 353.513 1.57307C353.685 1.62092 353.857 1.64118 354.074 1.63014C355.126 1.5786 356.178 1.53442 357.224 1.47736C357.581 1.45712 357.867 1.48841 358.065 1.55467C358.403 1.66878 358.881 1.53443 359.232 1.62645C359.448 1.68351 359.665 1.74977 360.06 1.72216C360.787 1.67431 361.527 1.64853 362.26 1.6154C362.521 1.66509 362.783 1.71479 363.05 1.76449C363.471 1.74424 363.892 1.72398 364.312 1.70558C364.625 1.69085 364.944 1.67429 365.256 1.66141C365.358 1.65773 365.466 1.65036 365.562 1.65957C365.658 1.66877 365.734 1.6927 365.823 1.7111C366.263 1.80129 366.263 1.80314 366.99 1.76633C367.302 1.74976 367.602 1.73872 367.863 1.81234C368.106 1.88044 368.392 1.89331 368.724 1.87307C369.349 1.83626 369.98 1.80865 370.617 1.78289C370.815 1.77368 371 1.80497 371.166 1.85282C371.414 1.92828 371.72 1.92092 372.033 1.90068C372.447 1.87491 372.855 1.84915 373.206 1.95222C373.276 1.9743 373.384 2.00557 373.461 2.00373C373.983 1.98901 374.513 1.97797 375.023 1.94301C375.533 1.90804 375.781 2.02214 376.132 2.07736C376.655 2.05343 377.184 2.0295 377.706 2.00558C377.808 2.00005 377.93 1.9835 378.019 1.9927C378.395 2.03135 378.612 2.16938 379.128 2.12705C379.428 2.10313 379.753 2.09577 380.065 2.09025C380.148 2.08841 380.256 2.11968 380.314 2.14361C380.346 2.15649 380.314 2.19146 380.276 2.20986C380.161 2.2614 380.021 2.30926 379.919 2.36264C379.906 2.37 380.027 2.40311 380.097 2.41784C380.269 2.45097 380.467 2.44546 380.696 2.43073C380.894 2.41785 381.098 2.44362 381.238 2.49883C381.296 2.52092 381.276 2.55772 381.155 2.67919C381.155 2.76938 381.289 2.72888 381.334 2.66998C381.404 2.58532 381.27 2.55772 381.015 2.60373C380.836 2.63686 380.747 2.68471 380.792 2.72336C380.817 2.74361 380.938 2.76938 381.155 2.67919C381.716 2.56876 382.137 2.54853 382.558 2.52828C382.666 2.52276 382.794 2.50435 382.87 2.51539C383.144 2.55956 383.399 2.61294 383.667 2.66264C383.973 2.65159 384.26 2.62397 384.56 2.69575C384.98 2.79698 384.999 2.78778 385.407 2.76753C385.618 2.75649 385.828 2.7473 386.039 2.7381C386.249 2.7289 386.415 2.7565 386.6 2.79883C386.976 2.88533 387.008 2.88532 387.256 2.76753C387.403 2.69575 387.505 2.67183 387.69 2.70496C388.302 2.81723 388.308 2.82459 388.831 2.79146C389.264 2.76385 389.672 2.75649 389.991 2.8614C390.208 2.93502 390.278 2.91845 390.45 2.84116C390.909 2.63686 391.119 2.64054 391.98 2.78777C392.382 2.85771 392.796 2.78226 393.204 2.77306C393.548 2.7657 393.791 2.80986 393.816 2.92581C393.835 2.99759 393.893 3.04913 394.122 3.07306C394.211 3.08226 394.32 3.09514 394.409 3.09146C394.938 3.06937 395.461 3.0436 395.99 3.01783C396.258 3.00495 396.404 2.91846 396.353 2.80435C396.296 2.68288 396.398 2.6387 396.78 2.60373C397.01 2.58348 397.195 2.58718 397.38 2.62031C397.584 2.65712 397.526 2.69024 397.348 2.7565C396.921 2.91846 396.972 3.01783 397.52 3.1301C397.711 3.16875 397.864 3.20373 397.909 3.26079C397.934 3.29023 397.909 3.32888 397.966 3.35097C398.279 3.47428 398.712 3.55343 399.197 3.61232C399.662 3.56263 399.981 3.64544 400.338 3.71169C400.618 3.76323 400.95 3.71907 401.249 3.70066C401.587 3.68042 401.868 3.69513 402.11 3.76323C402.282 3.81108 402.461 3.83316 402.671 3.82396C403.092 3.80371 403.519 3.79084 403.933 3.76139C404.29 3.73562 404.558 3.77244 404.781 3.83501C405.062 3.91415 405.374 3.86077 405.667 3.87181C406.062 3.8847 406.26 4.04849 406.776 4.00432C407.082 3.97855 407.401 3.96936 407.72 3.96199C407.803 3.96015 407.905 3.99145 407.975 4.01353C408.313 4.11476 408.708 4.10923 409.142 4.07979C409.441 4.05954 409.734 4.04114 410.028 4.11108C410.512 4.22887 411.048 4.33195 411.558 4.44053C411.628 4.5252 411.577 4.62456 411.94 4.67425C412.131 4.70002 412.31 4.73869 412.457 4.78102C412.635 4.83071 412.801 4.8436 413.03 4.83071C413.445 4.80495 413.878 4.79941 414.286 4.76628C414.662 4.73683 414.898 4.79758 415.128 4.85464C415.313 4.90065 415.485 4.92273 415.708 4.8896C415.937 4.85831 416.103 4.87855 416.288 4.92824C416.549 4.99634 416.568 4.98899 417.435 5.00923C417.525 5.01107 417.633 5.03866 417.684 5.06259C417.71 5.07547 417.652 5.1123 417.608 5.13071C417.55 5.15279 417.461 5.17855 417.378 5.18407C416.435 5.23192 415.485 5.27425 414.541 5.3221C414.446 5.32762 414.344 5.34052 414.273 5.35893C414.197 5.37917 414.101 5.40676 414.101 5.43253C414.101 5.45093 414.229 5.47302 414.318 5.48591C414.599 5.52824 414.93 5.46382 415.204 5.51168C415.389 5.54296 415.542 5.58713 415.727 5.61657C415.803 5.62946 415.925 5.62762 416.02 5.62394C416.339 5.61106 416.651 5.59266 416.97 5.58161C417.059 5.57977 417.161 5.59819 417.244 5.61291C417.856 5.72334 417.856 5.72333 418.385 5.69941C418.596 5.69021 418.819 5.6626 419.016 5.67364C419.208 5.68468 419.374 5.73437 419.546 5.76566C419.903 5.83192 420.24 5.89633 420.266 6.03989C420.279 6.0951 420.489 6.14295 420.699 6.14663C420.903 6.15031 421.12 6.13008 421.331 6.11904C421.828 6.09695 421.828 6.09695 422.472 6.20922C422.65 6.24051 422.841 6.24418 423.071 6.22578C423.16 6.21842 423.269 6.22579 423.364 6.23499C423.677 6.2626 423.677 6.29756 423.473 6.36381C423.186 6.46136 423.211 6.47057 424.014 6.55339C424.32 6.58468 424.556 6.64357 424.811 6.69511C425.226 6.77793 425.219 6.77791 424.945 6.8865C424.882 6.91043 424.824 6.9362 424.76 6.96197C424.576 7.03374 424.429 7.11104 424.046 7.1184C423.626 7.12576 423.205 7.15522 422.784 7.17547C422.376 7.19571 422.268 7.23987 422.306 7.36502C422.351 7.51594 422.434 7.53251 423.167 7.53066C423.377 7.53066 423.562 7.54538 423.721 7.59508C423.645 7.65397 423.504 7.69998 423.3 7.71103C422.778 7.73863 422.249 7.76257 421.726 7.78649C421.305 7.80674 420.884 7.82697 420.464 7.84722C420.202 7.8601 420.036 7.95582 420.107 8.06256C420.145 8.1233 420.177 8.18403 420.209 8.24477C420.279 8.36624 420.413 8.39753 420.84 8.39201C420.948 8.39017 421.05 8.37544 421.152 8.37912C421.566 8.392 421.764 8.54476 422.261 8.51347C422.676 8.4877 423.109 8.48218 423.517 8.44906C423.893 8.41961 424.104 8.48588 424.365 8.53558C424.454 8.55214 424.55 8.58709 424.627 8.58525C425.156 8.565 425.685 8.54478 426.201 8.50981C426.443 8.49508 426.59 8.50612 426.781 8.55029C427.24 8.65704 427.253 8.65152 427.935 8.61839C428.432 8.59262 428.439 8.5963 429.076 8.70857C429.255 8.73986 429.446 8.73985 429.675 8.72513C429.975 8.70672 430.287 8.67728 430.6 8.70488C430.695 8.71225 430.817 8.73434 430.849 8.75826C430.868 8.77483 430.778 8.81532 430.702 8.8282C430.141 8.92391 429.484 8.90735 428.872 8.946C428.681 8.95704 428.49 8.92207 428.33 8.87237C428.165 8.82268 427.986 8.80244 427.769 8.81165C427.349 8.83189 426.921 8.84477 426.507 8.87422C426.15 8.89998 425.901 8.85765 425.653 8.80059C425.57 8.78219 425.474 8.74721 425.391 8.74905C424.448 8.78586 423.498 8.82268 422.561 8.87422C422.185 8.8963 421.968 8.83741 421.713 8.78772C421.624 8.77115 421.535 8.73618 421.452 8.73802C421.133 8.74538 420.821 8.76563 420.502 8.78035C419.342 8.83556 418.188 8.89078 417.027 8.94231C416.951 8.94599 416.855 8.90734 416.766 8.89077C416.594 8.85765 416.415 8.82635 416.237 8.79506C415.918 8.80979 415.606 8.82819 415.287 8.83923C415.058 8.8466 414.854 8.87237 414.822 8.94231C414.803 8.98832 415.013 9.03065 415.236 9.02697C415.453 9.02328 415.67 9.0012 415.848 9.02512C416.734 9.14291 416.734 9.14476 417.289 9.12083C417.773 9.09875 417.722 9.08033 418.149 9.18156C418.334 9.22573 418.5 9.25151 418.71 9.24047C419.233 9.2147 419.762 9.18893 420.291 9.16684C420.374 9.16316 420.483 9.18157 420.566 9.1963C421.19 9.30673 421.19 9.3104 421.707 9.28279C422.382 9.24967 422.408 9.24046 422.861 9.35273C423.173 9.43003 423.46 9.37666 423.759 9.37298C424.104 9.44475 424.48 9.50918 424.792 9.59016C425.162 9.68586 425.551 9.66928 425.972 9.64168C426.284 9.62143 426.59 9.61407 426.845 9.68953C427.087 9.75947 427.38 9.76684 427.712 9.74844C428.012 9.73187 428.318 9.69689 428.63 9.73738C428.713 9.74843 428.84 9.77604 428.834 9.79261C428.828 9.81837 428.745 9.85519 428.662 9.86623C428.075 9.94169 427.431 9.93984 426.813 9.97481C426.73 9.98033 426.622 9.96008 426.539 9.94536C426.361 9.91223 426.188 9.87359 426.016 9.83862C425.704 9.84966 425.385 9.85333 425.079 9.87542C424.843 9.89198 424.665 9.89016 424.493 9.84599C424.333 9.8055 424.161 9.75579 423.97 9.74291C423.779 9.73003 423.556 9.75764 423.345 9.76868C423.135 9.77972 422.893 9.77419 422.727 9.80364C422.561 9.83309 422.459 9.89751 422.351 9.94904C422.229 10.0061 422.064 10.0245 421.821 10.03C421.598 10.0356 421.42 10.0282 421.254 9.97665C421.184 9.95457 421.088 9.938 420.993 9.92327C420.903 9.91039 420.801 9.89014 420.719 9.89382C419.769 9.93615 418.825 9.98218 417.875 10.0264C417.404 10.0484 417.41 10.0484 416.428 9.93983C416.339 9.93063 416.231 9.91775 416.141 9.92143C415.612 9.94352 415.089 9.96929 414.56 9.99505C414.025 10.0208 414.031 10.0171 413.12 9.90119C412.954 9.8791 412.712 9.90855 412.514 9.90487C412.1 9.89567 411.896 9.74107 411.411 9.77052C410.997 9.79629 410.563 9.80181 410.149 9.83493C409.773 9.86438 409.556 9.79997 409.301 9.75028C409.212 9.73372 409.116 9.6969 409.039 9.70058C408.09 9.74107 407.146 9.78709 405.884 9.79261C405.572 9.79261 405.712 9.83126 405.916 9.84415C406.209 9.86439 406.305 9.82574 406.145 9.75212C406.031 9.70059 405.865 9.6748 405.731 9.68769C405.661 9.69505 405.572 9.73003 405.884 9.79261C406.215 9.86255 406.196 9.90119 406.254 9.92327C406.394 9.97665 406.592 9.99873 406.796 9.99137C407.114 9.97849 407.427 9.96008 407.746 9.94904C407.835 9.94536 407.943 9.95825 408.026 9.97297C408.727 10.0871 408.734 10.0944 409.479 10.0503C409.715 10.0374 409.887 10.0374 410.072 10.0724C410.327 10.1202 410.512 10.2012 410.901 10.1754C411.417 10.1404 411.947 10.1202 412.476 10.1C412.559 10.0963 412.648 10.1294 412.743 10.1441C413.005 10.1883 413.196 10.2711 413.585 10.2362C413.885 10.2086 414.21 10.2012 414.528 10.1957C414.611 10.1938 414.739 10.2233 414.777 10.2472C414.854 10.2895 414.758 10.3392 414.541 10.3742C414.452 10.3889 414.331 10.3852 414.229 10.3908C413.808 10.411 413.387 10.4331 412.967 10.4496C412.743 10.4588 412.533 10.4865 412.508 10.5546C412.488 10.6006 412.718 10.6411 412.935 10.6374C413.253 10.6319 413.572 10.6171 413.878 10.5932C414.42 10.5527 414.892 10.5638 415.332 10.6797C415.644 10.7607 415.625 10.7313 415.956 10.9705C416.039 11.0312 416.288 11.0368 416.505 11.0331C417.028 11.0239 417.27 11.0515 417.225 11.1085C417.168 11.1785 416.983 11.2006 416.747 11.2098C416.326 11.2245 415.905 11.2484 415.485 11.2687C415.383 11.2742 415.268 11.2852 415.172 11.2815C415.077 11.2779 414.988 11.2558 414.905 11.2392C414.726 11.2042 414.573 11.1509 414.382 11.138C414.191 11.1251 413.967 11.1527 413.757 11.1637C413.547 11.1729 413.324 11.2006 413.132 11.1877C412.941 11.1748 412.782 11.1196 412.61 11.0865C412.527 11.0699 412.425 11.0441 412.342 11.046C411.921 11.0607 411.5 11.0846 411.08 11.103C410.563 11.1269 410.563 11.1269 409.938 11.0128C409.76 10.9797 409.575 10.9816 409.339 10.9963C408.829 11.0257 408.823 11.0202 407.892 10.9134C407.803 10.9024 407.694 10.8895 407.605 10.895C406.655 10.9374 405.712 10.9834 404.768 11.0276C403.959 11.0662 403.959 11.0662 403.512 11.2503C403.181 11.3865 403.175 11.3865 403.5 11.449C403.761 11.5006 403.997 11.576 404.284 11.6036C404.552 11.6294 404.883 11.5466 405.176 11.6312C405.323 11.6736 405.514 11.7196 405.699 11.7269C405.992 11.7361 406.305 11.6828 406.585 11.7637C406.725 11.8042 406.936 11.8466 407.114 11.8484C407.427 11.8521 407.746 11.8226 408.058 11.8098C408.154 11.8061 408.262 11.8061 408.351 11.8153C408.447 11.8263 408.53 11.8484 408.612 11.8668C408.867 11.9294 409.142 11.9588 409.473 11.9275C410.015 11.876 410.5 11.9018 410.92 12.0196C410.978 12.0361 411.118 12.038 411.207 12.0306C411.437 12.0122 411.634 12.0104 411.806 12.0453C411.876 12.0601 411.978 12.0858 411.966 12.1024C411.947 12.13 411.87 12.1668 411.787 12.176C411.188 12.2386 410.544 12.246 409.926 12.2791C409.843 12.2828 409.741 12.2588 409.658 12.2423C409.48 12.2091 409.326 12.1539 409.135 12.141C408.944 12.1282 408.721 12.1521 408.51 12.1613C408.3 12.1705 408.077 12.1981 407.886 12.1871C407.694 12.1742 407.516 12.1282 407.363 12.0877C407.184 12.0417 407.012 12.0361 406.776 12.0545C406.47 12.0785 406.152 12.0822 405.839 12.095C405.667 12.0601 405.495 12.0214 405.317 11.9883C405.234 11.9717 405.132 11.9515 405.043 11.9533C404.622 11.968 404.201 11.9901 403.78 12.0104C403.359 12.0306 403.359 12.0306 402.646 11.9165C402.563 11.9036 402.454 11.8889 402.365 11.8926C401.836 11.9147 401.313 11.9423 400.784 11.9643C400.58 11.9735 400.395 11.9478 400.229 11.8981C400.07 11.8484 399.879 11.8208 399.681 11.83C398.84 11.8686 397.998 11.9055 397.157 11.9515C396.819 11.9699 396.532 11.9533 396.302 11.8871C396.034 11.8116 395.735 11.83 395.423 11.8447C394.715 11.8815 394.709 11.8797 394.256 11.7858C394.167 11.7674 394.077 11.7324 393.995 11.7343C393.261 11.7619 392.522 11.7877 391.795 11.8318C391.413 11.8558 391.209 11.7914 390.954 11.7435C390.864 11.7269 390.769 11.692 390.692 11.6956C390.163 11.7159 389.634 11.7343 389.118 11.7711C388.601 11.8079 388.404 11.6368 388.015 11.6386C387.486 11.6404 386.963 11.6828 386.44 11.7085C386.019 11.7288 385.599 11.749 385.178 11.7693C384.757 11.7895 384.336 11.8061 383.916 11.83C383.693 11.8429 383.527 11.8263 383.342 11.7803C383.106 11.7196 382.826 11.6717 382.571 11.6165C382.182 11.5374 382.182 11.5374 381.71 11.5595C381.608 11.565 381.5 11.5686 381.398 11.5742C380.626 11.6147 380.626 11.611 379.644 11.495C379.6 11.4895 379.485 11.5098 379.44 11.5245C379.307 11.5723 379.185 11.6239 379.064 11.6736C378.892 11.6441 378.682 11.6276 378.567 11.5852C378.242 11.4656 377.732 11.6294 377.4 11.5116C377.279 11.4674 377.069 11.4288 376.878 11.4177C376.68 11.4067 376.457 11.4325 376.253 11.4435C375.724 11.4711 375.724 11.4693 375.271 11.6331C375.042 11.7141 374.71 11.6993 374.411 11.7177C374.098 11.738 373.798 11.749 373.537 11.6736C373.301 11.6055 373.014 11.5889 372.677 11.611C372.262 11.6386 371.835 11.6552 371.414 11.6717C371.325 11.6754 371.217 11.6662 371.127 11.6552C370.152 11.5466 370.152 11.5447 369.68 11.5687C369.47 11.5797 369.253 11.5834 369.049 11.5999C368.705 11.6294 368.444 11.5907 368.195 11.5318C368.112 11.5134 368.016 11.4785 367.933 11.4803C367.513 11.4895 367.098 11.5061 366.684 11.5227C366.365 11.5355 366.047 11.5429 365.741 11.5687C365.23 11.611 364.982 11.4913 364.631 11.4361C364.109 11.4601 363.579 11.4766 363.057 11.5098C362.814 11.5245 362.655 11.519 362.47 11.4748C362.234 11.4196 362.018 11.357 361.635 11.3846C361.125 11.4214 360.59 11.4343 360.067 11.4564C359.716 11.3993 359.461 11.2834 358.958 11.3257C358.652 11.3515 358.326 11.357 358.014 11.3717C357.593 11.392 357.173 11.4104 356.752 11.4325C356.299 11.4546 356.306 11.449 355.611 11.3404C355.209 11.276 354.795 11.3478 354.387 11.3588C354.068 11.368 353.909 11.4527 353.985 11.5613C354.062 11.6699 353.889 11.7545 353.596 11.7693C352.863 11.8042 352.123 11.841 351.39 11.8723C351.301 11.876 351.193 11.8631 351.11 11.8502C350.326 11.7343 350.326 11.7361 349.975 11.7527C349.452 11.7803 348.917 11.795 348.401 11.83C348.044 11.8539 347.782 11.8153 347.553 11.7527C347.374 11.7049 347.208 11.6938 346.979 11.7049C344.454 11.8282 341.93 11.9423 339.412 12.0693C339.036 12.0877 338.819 12.0343 338.564 11.9846C338.475 11.968 338.392 11.9331 338.302 11.9331C338.092 11.9331 337.882 11.9496 337.671 11.9607C336.728 12.0049 335.784 12.0582 334.834 12.0913C334.433 12.1061 334.324 12.1907 334.152 12.2607C334.018 12.3141 333.866 12.3361 333.63 12.3435C333.4 12.3509 333.234 12.3416 333.056 12.2938C332.826 12.2312 332.565 12.1926 332.208 12.2183C331.794 12.2478 331.373 12.2607 330.946 12.2809C330.729 12.2901 330.563 12.3232 330.493 12.3895C330.48 12.4005 330.614 12.4282 330.691 12.4447C330.946 12.4999 331.188 12.5644 331.475 12.603C331.768 12.6417 332.087 12.5975 332.393 12.5864C332.501 12.5827 332.603 12.5717 332.705 12.5736C332.801 12.5754 332.916 12.5846 332.986 12.6012C333.317 12.684 333.668 12.741 334.127 12.6913C334.522 12.7153 334.726 12.868 335.23 12.8275C335.536 12.8036 335.855 12.7926 336.173 12.7834C336.256 12.7815 336.345 12.8147 336.435 12.8312C336.69 12.8772 336.894 12.9508 337.276 12.9196C337.684 12.8864 338.118 12.8809 338.532 12.8551C338.762 12.8404 338.927 12.8533 339.106 12.9012C339.335 12.9619 339.597 13.0079 339.954 12.9784C340.26 12.9527 340.585 12.9472 340.897 12.9306C341.305 12.9103 341.305 12.9122 342.032 13.0263C342.115 13.0392 342.223 13.0539 342.312 13.0502C342.841 13.0281 343.364 13.0005 343.893 12.9784C344.097 12.9692 344.295 12.9932 344.435 13.0465C344.493 13.0686 344.473 13.1055 344.493 13.1367C343.441 13.1864 342.389 13.2288 341.343 13.2895C340.948 13.3134 340.77 13.238 340.508 13.1956C340.419 13.1809 340.323 13.1496 340.24 13.1533C339.501 13.1846 338.768 13.2177 338.035 13.2582C337.805 13.2711 337.633 13.2637 337.461 13.2103C337.021 13.0686 336.486 13.1459 335.988 13.1662C335.606 13.1809 335.485 13.238 335.529 13.3594C335.587 13.503 335.816 13.5472 336.403 13.5214C336.613 13.5122 336.823 13.4993 337.034 13.4919C337.238 13.4846 337.423 13.5085 337.589 13.5582C337.748 13.6079 337.939 13.6337 338.137 13.6263C338.557 13.6097 338.985 13.5932 339.393 13.5656C339.73 13.5435 340.011 13.5619 340.247 13.63C340.508 13.7054 340.814 13.6889 341.12 13.6723C341.834 13.6355 341.841 13.6373 342.287 13.7294C342.376 13.7478 342.465 13.7827 342.548 13.7809C343.281 13.7533 344.021 13.7294 344.741 13.6852C345.117 13.6631 345.334 13.722 345.583 13.7699C345.672 13.7864 345.761 13.8232 345.844 13.8196C346.373 13.7993 346.902 13.7791 347.419 13.7441C347.661 13.7275 347.808 13.7386 348.005 13.7827C348.477 13.8913 348.49 13.8876 349.159 13.8527C349.363 13.8416 349.586 13.8214 349.777 13.8361C349.969 13.8508 350.122 13.9042 350.3 13.9373C350.383 13.9521 350.485 13.9723 350.574 13.9686C350.995 13.9539 351.416 13.9318 351.837 13.9116C352.232 13.8913 352.232 13.8932 352.971 14.0073C353.271 14.0551 353.583 14.0146 353.883 13.9999C354.208 13.9833 354.501 13.9834 354.75 14.0551C354.999 14.1269 355.298 14.1232 355.617 14.1085C355.917 14.0938 356.223 14.0533 356.529 14.103C357.23 14.2171 357.23 14.2189 357.663 14.1968C358.295 14.1655 358.919 14.1361 359.557 14.1085C359.64 14.1048 359.748 14.1269 359.831 14.1416C360.009 14.1748 360.162 14.23 360.354 14.2428C360.545 14.2576 360.768 14.2355 360.972 14.2244C361.629 14.1895 361.673 14.1766 362.113 14.2981C362.483 14.3975 362.942 14.2539 363.286 14.368C363.484 14.4324 363.751 14.4839 364.121 14.4527C364.427 14.4269 364.746 14.4195 365.065 14.4048C365.568 14.3809 365.568 14.3827 366.206 14.4932C366.289 14.5079 366.397 14.5263 366.48 14.5226C366.901 14.5079 367.328 14.495 367.736 14.4619C368.214 14.4232 368.52 14.4932 368.877 14.5613C369.157 14.6146 369.489 14.5705 369.789 14.5521C370.114 14.5336 370.407 14.5392 370.649 14.6109C370.904 14.6846 371.204 14.6754 371.523 14.6606C371.822 14.6478 372.128 14.6054 372.434 14.657C373.091 14.7711 373.091 14.7711 373.569 14.749C373.99 14.7287 374.411 14.7067 374.831 14.6919C374.914 14.6883 375.016 14.7122 375.099 14.7287C375.277 14.7619 375.431 14.8171 375.622 14.83C375.813 14.8429 376.036 14.8189 376.246 14.8097C376.457 14.8005 376.68 14.7729 376.871 14.784C377.062 14.795 377.241 14.841 377.394 14.8815C377.573 14.9294 377.738 14.9349 377.98 14.9165C378.286 14.8925 378.605 14.887 378.918 14.8741C379.09 14.9091 379.268 14.9441 379.434 14.9827C379.606 15.0232 379.791 15.0195 380.027 15.0066C380.811 14.9625 380.817 14.968 381.474 15.0821C381.774 15.1336 382.086 15.0913 382.386 15.0784C382.704 15.0637 383.004 15.0563 383.253 15.13C383.495 15.1999 383.795 15.2091 384.113 15.187C384.317 15.1723 384.534 15.1631 384.744 15.1576C384.84 15.1557 384.955 15.1631 385.025 15.1778C385.363 15.2551 385.694 15.3251 386.16 15.2754C386.568 15.2901 386.772 15.441 387.263 15.4116C387.677 15.3858 388.11 15.3803 388.518 15.3471C388.895 15.3177 389.162 15.3692 389.354 15.4336C389.698 15.5478 390.182 15.3932 390.527 15.5054C390.724 15.5698 390.979 15.6214 391.362 15.5938C391.782 15.5643 391.916 15.603 392.037 15.7189C392.108 15.7852 392.095 15.8385 391.967 15.8901C391.84 15.9435 391.7 15.9343 391.496 15.8735C391.26 15.8054 390.979 15.7925 390.641 15.8072C390.31 15.822 390.106 15.7263 389.832 15.6895C389.558 15.6508 389.232 15.7152 388.946 15.6655C388.27 15.5496 388.27 15.5496 387.811 15.5717C387.498 15.5864 387.173 15.5938 386.867 15.6195C386.504 15.6508 386.268 15.5938 386.019 15.5422C385.93 15.5238 385.841 15.4888 385.764 15.4907C385.031 15.5183 384.292 15.5441 383.565 15.5901C383.182 15.614 382.979 15.5478 382.724 15.5017C382.634 15.4852 382.539 15.452 382.462 15.4557C381.831 15.4815 381.206 15.5146 380.575 15.5459C380.454 15.5956 380.32 15.6434 380.205 15.6968C380.084 15.752 379.919 15.776 379.676 15.7741C379.275 15.7741 378.879 15.8514 378.478 15.7539C378.063 15.6545 378.032 15.66 377.63 15.6839C377.12 15.7152 376.578 15.7079 376.1 15.7797C376.017 15.7925 375.928 15.8275 375.928 15.8533C375.921 15.8698 376.055 15.8938 376.138 15.9085C376.419 15.9527 376.744 15.8882 377.024 15.9342C377.209 15.9637 377.362 16.0079 377.547 16.0391C377.624 16.052 377.738 16.0502 377.84 16.0484C377.949 16.0465 378.051 16.0336 378.153 16.0355C378.248 16.0373 378.35 16.0483 378.427 16.0649C378.777 16.1349 379.147 16.1993 379.46 16.2821C379.766 16.3631 380.052 16.3079 380.358 16.3042C381.582 16.433 381.582 16.4349 382.405 16.3944C382.609 16.3852 382.819 16.3741 383.03 16.376C383.119 16.376 383.202 16.4091 383.291 16.4275C383.546 16.4827 383.788 16.5324 384.145 16.5029C384.451 16.4772 384.776 16.4717 385.089 16.4551C385.509 16.4348 385.509 16.4349 386.223 16.5508C386.402 16.5802 386.593 16.5766 386.823 16.5619C387.02 16.549 387.224 16.5766 387.364 16.6299C387.422 16.652 387.403 16.6888 387.422 16.7201C386.791 16.7496 386.153 16.7698 385.541 16.814C385.146 16.8416 384.968 16.7625 384.706 16.7201C384.617 16.7054 384.521 16.6741 384.438 16.6778C383.814 16.7054 383.189 16.7367 382.564 16.7735C382.488 16.7772 382.392 16.8195 382.386 16.8453C382.373 16.8931 382.532 16.9391 382.762 16.9373C383.068 16.9355 383.367 16.9042 383.642 16.9796C383.871 17.0459 384.158 17.0753 384.496 17.0459C384.7 17.0293 384.917 17.0293 385.121 17.0146C385.663 16.9704 386.153 16.9796 386.561 17.1048C386.874 17.1379 387.18 17.1066 387.479 17.0901C387.702 17.0772 387.919 17.0643 388.079 17.0993C388.416 17.1729 388.748 17.2465 389.213 17.1968C389.717 17.2483 390.099 17.3569 390.52 17.4453C390.718 17.4876 390.871 17.5115 391.1 17.4839C391.196 17.4729 391.311 17.4729 391.413 17.4674C391.623 17.4581 391.846 17.4305 392.037 17.4416C392.229 17.4545 392.388 17.5078 392.56 17.541C392.643 17.5575 392.739 17.5851 392.822 17.5833C393.14 17.5741 393.453 17.5557 393.765 17.541C394.077 17.5281 394.39 17.5152 394.702 17.5023C394.964 17.5502 395.231 17.598 395.493 17.6459C395.913 17.6256 396.334 17.6054 396.749 17.587C397.214 17.5649 397.214 17.5667 397.883 17.6809C398.183 17.7324 398.502 17.6992 398.789 17.6753C399.267 17.6367 399.585 17.7066 399.923 17.7802C399.993 17.795 400.121 17.8042 400.204 17.7968C400.535 17.771 400.822 17.7913 401.064 17.8594C401.236 17.9072 401.409 17.9293 401.619 17.9201C402.352 17.8852 403.085 17.8483 403.818 17.817C403.908 17.8134 404.01 17.8299 404.092 17.8447C404.743 17.9569 404.749 17.9624 405.227 17.933C405.654 17.9072 406.05 17.8962 406.388 17.9974C406.458 18.0195 406.566 18.0508 406.642 18.0489C407.165 18.0305 407.694 18.0103 408.211 17.979C408.447 17.9643 408.612 17.9698 408.797 18.0121C409.033 18.0655 409.244 18.1299 409.632 18.106C410.71 18.0379 410.716 18.0489 411.991 18.1759C412.08 18.1851 412.202 18.1704 412.304 18.1631C412.52 18.1446 412.68 18.1704 412.871 18.2127C413.298 18.3085 413.311 18.3029 413.719 18.2827C414.031 18.2661 414.356 18.2624 414.662 18.2348C415.134 18.1943 415.446 18.2661 415.797 18.3342C416.078 18.3876 416.403 18.3434 416.702 18.3269C417.027 18.3085 417.321 18.314 417.563 18.3839C417.729 18.4318 417.907 18.4575 418.117 18.4483C418.851 18.4152 419.584 18.3784 420.317 18.3453C420.406 18.3416 420.515 18.3563 420.597 18.3692C421.324 18.4833 421.324 18.4888 422.045 18.4465C422.274 18.4336 422.465 18.4299 422.637 18.4686C422.803 18.5054 422.982 18.5403 423.154 18.5753C423.466 18.5624 423.785 18.5588 424.091 18.5367C424.327 18.5201 424.493 18.5275 424.677 18.5661C424.92 18.6158 425.124 18.7023 425.506 18.66C425.704 18.6397 425.933 18.6453 426.131 18.6269C426.367 18.6029 426.526 18.6176 426.711 18.6655C426.941 18.7226 427.176 18.7814 427.546 18.752C427.954 18.7189 428.388 18.7133 428.802 18.6876C429.032 18.6729 429.191 18.6876 429.376 18.7354C429.605 18.7962 429.867 18.8348 430.224 18.8109C430.951 18.7649 430.957 18.7741 431.664 18.89C431.843 18.9195 432.034 18.9158 432.264 18.9011C432.461 18.8882 432.665 18.9158 432.806 18.9692C432.939 19.0281 432.927 19.0649 432.939 19.0962ZM376.132 2.49699C375.921 2.50619 375.711 2.51723 375.405 2.35711C375.386 2.3295 375.399 2.29638 375.354 2.27246C375.252 2.22276 375.093 2.1878 374.901 2.18228C374.557 2.17491 374.143 2.23748 374.149 2.28533C374.155 2.32582 374.264 2.36078 374.474 2.39391C374.563 2.40679 374.634 2.42888 374.717 2.44361C374.959 2.48594 375.15 2.56877 375.501 2.52644C375.437 2.41233 375.469 2.46939 375.501 2.52644C375.469 2.59638 375.564 2.64607 375.794 2.66632C375.858 2.67184 375.953 2.66815 376.004 2.65711C376.202 2.61662 376.234 2.56142 376.087 2.41602C376.062 2.43994 376.081 2.48226 376.138 2.4933C376.196 2.50435 376.336 2.49516 376.406 2.48227C376.584 2.4473 376.674 2.40129 376.629 2.36264C376.604 2.34239 376.482 2.31663 376.406 2.31663C376.272 2.31663 376.151 2.35711 376.132 2.49699ZM427.68 23.8409C427.215 23.8759 426.679 23.863 426.214 23.9348C426.131 23.9476 426.048 23.9808 426.042 24.0065C426.035 24.0231 426.163 24.047 426.239 24.0599C426.412 24.0894 426.603 24.0802 426.826 24.071C427.164 24.0581 427.361 24.1427 427.623 24.1851C427.706 24.1979 427.814 24.2071 427.903 24.2035C428.42 24.1814 428.93 24.1575 429.446 24.1317C429.535 24.1262 429.631 24.1133 429.707 24.0967C429.962 24.0433 429.937 24.0084 429.688 23.9679C429.414 23.9237 429.197 23.8501 428.917 23.8151C428.515 23.7654 428.107 23.8317 427.68 23.8409ZM391.476 25.1844C391.164 25.1992 390.858 25.2139 390.546 25.2286C390.444 25.2341 390.335 25.236 390.24 25.2433C390.042 25.2562 389.895 25.2949 389.8 25.3556C389.946 25.4034 390.125 25.4311 390.323 25.4255C390.635 25.4145 390.941 25.3906 391.253 25.385C391.591 25.3777 391.789 25.4605 392.05 25.5028C392.133 25.5157 392.235 25.5176 392.331 25.5194C392.802 25.5268 393.089 25.4311 393 25.2967C392.936 25.1918 392.694 25.1292 392.401 25.1421C392.095 25.155 391.782 25.1697 391.476 25.1844ZM429.86 21.1207C429.937 21.0894 430.02 21.0673 430.058 21.0397C430.173 20.9458 430.128 20.8759 429.918 20.8023C429.663 20.7121 429.35 20.7728 429.064 20.782C428.993 20.7839 428.917 20.8225 428.879 20.8464C428.853 20.863 428.853 20.898 428.891 20.9072C429.204 20.9808 429.535 21.0489 429.86 21.1207ZM374.557 15.6839C374.251 15.6987 373.939 15.7097 373.633 15.73C373.556 15.7355 373.486 15.7704 373.442 15.7944C373.359 15.8385 373.448 15.8993 373.709 15.9048C374.009 15.9122 374.321 15.8809 374.634 15.8662C375.029 15.8477 375.265 15.7796 375.118 15.7207C374.978 15.6637 374.787 15.6527 374.557 15.6839ZM38.9831 11.7509C39.1871 11.7417 39.3975 11.7343 39.6015 11.7214C39.7927 11.7085 39.9394 11.668 40.0351 11.6073C39.8757 11.5595 39.6971 11.5337 39.4995 11.5392C39.1871 11.5503 38.8812 11.565 38.5752 11.5834C38.3839 11.5944 38.1991 11.6349 38.1545 11.6975C38.1099 11.7453 38.5369 11.773 38.9831 11.7509ZM347.597 11.4674C347.68 11.484 347.763 11.5171 347.846 11.5171C348.05 11.5171 348.26 11.5061 348.452 11.4877C348.534 11.4803 348.598 11.4472 348.636 11.4214C348.662 11.4049 348.656 11.3754 348.617 11.3607C348.432 11.2723 347.693 11.3036 347.572 11.4049C347.559 11.4233 347.591 11.4472 347.597 11.4674ZM327.484 1.38902C327.503 1.41847 327.51 1.44791 327.535 1.47736C327.586 1.53258 327.726 1.57307 327.93 1.60068C328.09 1.55467 328.173 1.50314 328.166 1.44793C328.16 1.41848 328.141 1.38902 328.115 1.35957C328.064 1.30436 327.924 1.26388 327.72 1.23627C327.561 1.28044 327.484 1.33197 327.484 1.38902ZM444.593 25.5047C444.536 25.5286 444.478 25.5525 444.414 25.5746C444.587 25.628 444.746 25.6446 444.867 25.6151C444.944 25.5967 444.988 25.5691 445.046 25.5452C444.874 25.4918 444.72 25.4771 444.593 25.5047ZM440.628 25.755C440.711 25.7715 440.787 25.7936 440.876 25.8047C441.023 25.8231 441.157 25.7918 441.259 25.7255C441.176 25.709 441.1 25.6869 441.01 25.6758C440.864 25.6574 440.73 25.6887 440.628 25.755ZM443.139 25.4182C443.095 25.4624 443.184 25.4992 443.42 25.5305C443.477 25.5065 443.554 25.4844 443.592 25.4587C443.656 25.4163 443.547 25.3777 443.318 25.3482C443.254 25.3703 443.197 25.3943 443.139 25.4182ZM429.682 23.4342C429.637 23.4783 429.726 23.5151 429.962 23.5464C430.02 23.5225 430.096 23.5004 430.134 23.4746C430.198 23.4323 430.09 23.3937 429.86 23.3642C429.797 23.3863 429.739 23.4102 429.682 23.4342ZM411.347 10.411C411.29 10.4349 411.233 10.4589 411.169 10.4809C411.341 10.5343 411.5 10.5509 411.621 10.5214C411.698 10.503 411.743 10.4754 411.8 10.4515C411.628 10.3981 411.475 10.3834 411.347 10.411ZM393.784 3.50188C393.937 3.51476 394.065 3.489 394.173 3.42091C394.09 3.40434 394.014 3.38225 393.924 3.37121C393.778 3.35281 393.644 3.3841 393.542 3.45036C393.625 3.46877 393.708 3.48531 393.784 3.50188ZM384.458 3.06937C384.4 3.0933 384.343 3.11722 384.279 3.13931C384.451 3.19268 384.611 3.20924 384.732 3.1798C384.808 3.16139 384.853 3.13378 384.91 3.10986C384.738 3.05648 384.585 3.0436 384.458 3.06937ZM321.211 1.38718C321.154 1.41111 321.096 1.43503 321.033 1.45712C321.205 1.51049 321.364 1.52705 321.485 1.4976C321.562 1.4792 321.606 1.45159 321.664 1.42767C321.492 1.37429 321.339 1.36141 321.211 1.38718ZM6.29205 16.3612C6.20918 16.3447 6.12638 16.3281 6.04988 16.3097C5.865 16.3594 5.80764 16.4054 5.90964 16.4404C5.97339 16.4625 6.06894 16.4754 6.15182 16.4919C6.34307 16.4422 6.38768 16.398 6.29205 16.3612Z" fill="#8EB0F0"/>
</svg>
