<svg width="20" height="19" viewBox="0 0 20 19" fill="none" xmlns="http://www.w3.org/2000/svg">
<path d="M7.84254 15.6934H4.12802C3.03311 15.6934 2.48565 15.6934 2.06746 15.4754C1.69959 15.2837 1.40051 14.9777 1.21309 14.6014C1 14.1736 1 13.6135 1 12.4934V4.89336C1 3.77326 1 3.2132 1.21309 2.78538C1.40051 2.40905 1.69959 2.10309 2.06746 1.91135C2.48565 1.69336 3.03311 1.69336 4.12802 1.69336H15.4671C16.562 1.69336 17.1095 1.69336 17.5277 1.91135C17.8955 2.10309 18.1946 2.40905 18.382 2.78538C18.5951 3.2132 18.5951 3.77326 18.5951 4.89336V6.69336M18.2106 4.95565L13.2676 8.32686C12.0135 9.18216 11.3864 9.60986 10.7086 9.77606C10.1096 9.92286 9.48514 9.92286 8.88622 9.77606C8.20842 9.60986 7.58134 9.18216 6.32716 8.32686L1.14414 4.79199M11.7526 17.6934L13.732 17.2884C13.9045 17.2531 13.9908 17.2354 14.0713 17.2031C14.1428 17.1745 14.2107 17.1373 14.2735 17.0924C14.3445 17.0418 14.4067 16.9782 14.5312 16.8508L18.5951 12.6934C19.135 12.1411 19.135 11.2457 18.5951 10.6934C18.0552 10.1411 17.18 10.1411 16.6401 10.6934L12.5762 14.8508C12.4517 14.9782 12.3895 15.0418 12.34 15.1144C12.2961 15.1787 12.2598 15.2482 12.2318 15.3213C12.2003 15.4036 12.183 15.4919 12.1484 15.6684L11.7526 17.6934Z" stroke="#1F2070" stroke-width="2" stroke-linecap="round" stroke-linejoin="round"/>
</svg>
